<svg width="44" height="44" viewBox="0 0 44 44" fill="none" xmlns="http://www.w3.org/2000/svg">
<circle cx="22" cy="22" r="22" fill="#DD2E28"/>
<g opacity="0.2">
<path d="M22.0375 17.3374C22.0375 18.8093 21.4528 20.221 20.4119 21.2618C19.3711 22.3026 17.9595 22.8874 16.4875 22.8874C15.0155 22.8874 13.6039 22.3026 12.5631 21.2618C11.5222 20.221 10.9375 18.8093 10.9375 17.3374C10.9375 15.8654 11.5222 14.4537 12.5631 13.4129C13.6039 12.3721 15.0155 11.7874 16.4875 11.7874C17.9595 11.7874 19.3711 12.3721 20.4119 13.4129C21.4528 14.4537 22.0375 15.8654 22.0375 17.3374Z" fill="white"/>
<path fill-rule="evenodd" clip-rule="evenodd" d="M16.4875 19.1874C16.9782 19.1874 17.4487 18.9924 17.7956 18.6455C18.1426 18.2986 18.3375 17.828 18.3375 17.3374C18.3375 16.8467 18.1426 16.3761 17.7956 16.0292C17.4487 15.6823 16.9782 15.4874 16.4875 15.4874C15.9968 15.4874 15.5263 15.6823 15.1794 16.0292C14.8324 16.3761 14.6375 16.8467 14.6375 17.3374C14.6375 17.828 14.8324 18.2986 15.1794 18.6455C15.5263 18.9924 15.9968 19.1874 16.4875 19.1874ZM16.4875 22.8874C17.2163 22.8874 17.938 22.7438 18.6114 22.4649C19.2847 22.186 19.8966 21.7772 20.4119 21.2618C20.9273 20.7464 21.3361 20.1346 21.615 19.4612C21.8939 18.7879 22.0375 18.0662 22.0375 17.3374C22.0375 16.6085 21.8939 15.8868 21.615 15.2135C21.3361 14.5401 20.9273 13.9283 20.4119 13.4129C19.8966 12.8975 19.2847 12.4887 18.6114 12.2098C17.938 11.9309 17.2163 11.7874 16.4875 11.7874C15.0155 11.7874 13.6039 12.3721 12.5631 13.4129C11.5222 14.4537 10.9375 15.8654 10.9375 17.3374C10.9375 18.8093 11.5222 20.221 12.5631 21.2618C13.6039 22.3026 15.0155 22.8874 16.4875 22.8874Z" fill="white"/>
<path fill-rule="evenodd" clip-rule="evenodd" d="M16.58 24.275C15.844 24.275 15.1382 24.5673 14.6178 25.0877C14.0973 25.6081 13.805 26.314 13.805 27.05V29.825C13.805 30.3156 13.6101 30.7862 13.2631 31.1331C12.9162 31.48 12.4456 31.675 11.955 31.675C11.4643 31.675 10.9938 31.48 10.6468 31.1331C10.2999 30.7862 10.105 30.3156 10.105 29.825V27.05C10.105 25.3327 10.7872 23.6857 12.0015 22.4714C13.2158 21.2571 14.8627 20.575 16.58 20.575C18.2973 20.575 19.9442 21.2571 21.1585 22.4714C22.3728 23.6857 23.055 25.3327 23.055 27.05V27.975C23.055 28.4656 22.8601 28.9362 22.5131 29.2831C22.1662 29.63 21.6956 29.825 21.205 29.825C20.7143 29.825 20.2438 29.63 19.8968 29.2831C19.5499 28.9362 19.355 28.4656 19.355 27.975V27.05C19.355 26.314 19.0626 25.6081 18.5422 25.0877C18.0218 24.5673 17.316 24.275 16.58 24.275Z" fill="white"/>
<path d="M27.5876 17.3374C27.5876 18.8093 28.1724 20.221 29.2132 21.2618C30.254 22.3026 31.6657 22.8874 33.1376 22.8874C34.6096 22.8874 36.0213 22.3026 37.0621 21.2618C38.1029 20.221 38.6876 18.8093 38.6876 17.3374C38.6876 15.8654 38.1029 14.4537 37.0621 13.4129C36.0213 12.3721 34.6096 11.7874 33.1376 11.7874C31.6657 11.7874 30.254 12.3721 29.2132 13.4129C28.1724 14.4537 27.5876 15.8654 27.5876 17.3374Z" fill="white"/>
<path fill-rule="evenodd" clip-rule="evenodd" d="M33.1376 19.1874C32.647 19.1874 32.1764 18.9924 31.8295 18.6455C31.4826 18.2986 31.2876 17.828 31.2876 17.3374C31.2876 16.8467 31.4826 16.3761 31.8295 16.0292C32.1764 15.6823 32.647 15.4874 33.1376 15.4874C33.6283 15.4874 34.0989 15.6823 34.4458 16.0292C34.7927 16.3761 34.9876 16.8467 34.9876 17.3374C34.9876 17.828 34.7927 18.2986 34.4458 18.6455C34.0989 18.9924 33.6283 19.1874 33.1376 19.1874ZM33.1376 22.8874C32.4088 22.8874 31.6871 22.7438 31.0138 22.4649C30.3404 22.186 29.7286 21.7772 29.2132 21.2618C28.6978 20.7464 28.289 20.1346 28.0101 19.4612C27.7312 18.7879 27.5876 18.0662 27.5876 17.3374C27.5876 16.6085 27.7312 15.8868 28.0101 15.2135C28.289 14.5401 28.6978 13.9283 29.2132 13.4129C29.7286 12.8975 30.3404 12.4887 31.0138 12.2098C31.6871 11.9309 32.4088 11.7874 33.1376 11.7874C34.6096 11.7874 36.0213 12.3721 37.0621 13.4129C38.1029 14.4537 38.6876 15.8654 38.6876 17.3374C38.6876 18.8093 38.1029 20.221 37.0621 21.2618C36.0213 22.3026 34.6096 22.8874 33.1376 22.8874Z" fill="white"/>
<path fill-rule="evenodd" clip-rule="evenodd" d="M33.0451 24.275C33.781 24.275 34.4869 24.5673 35.0073 25.0877C35.5277 25.6081 35.8201 26.314 35.8201 27.05V29.825C35.8201 30.3156 36.015 30.7862 36.3619 31.1331C36.7089 31.48 37.1794 31.675 37.6701 31.675C38.1607 31.675 38.6313 31.48 38.9782 31.1331C39.3252 30.7862 39.5201 30.3156 39.5201 29.825V27.05C39.5201 25.3327 38.8379 23.6857 37.6236 22.4714C36.4093 21.2571 34.7623 20.575 33.0451 20.575C31.3278 20.575 29.6809 21.2571 28.4666 22.4714C27.2523 23.6857 26.5701 25.3327 26.5701 27.05V27.975C26.5701 28.4656 26.765 28.9362 27.1119 29.2831C27.4589 29.63 27.9294 29.825 28.4201 29.825C28.9107 29.825 29.3813 29.63 29.7282 29.2831C30.0752 28.9362 30.2701 28.4656 30.2701 27.975V27.05C30.2701 26.314 30.5624 25.6081 31.0828 25.0877C31.6033 24.5673 32.3091 24.275 33.0451 24.275Z" fill="white"/>
<path fill-rule="evenodd" clip-rule="evenodd" d="M24.9052 29.3625C24.1692 29.3625 23.4634 29.6548 22.943 30.1753C22.4225 30.6957 22.1302 31.4015 22.1302 32.1375V34.9125C22.1302 35.4031 21.9353 35.8737 21.5883 36.2206C21.2414 36.5676 20.7708 36.7625 20.2802 36.7625C19.7895 36.7625 19.319 36.5676 18.972 36.2206C18.6251 35.8737 18.4302 35.4031 18.4302 34.9125V32.1375C18.4302 30.4202 19.1124 28.7733 20.3267 27.559C21.541 26.3447 23.1879 25.6625 24.9052 25.6625C26.6225 25.6625 28.2694 26.3447 29.4837 27.559C30.698 28.7733 31.3802 30.4202 31.3802 32.1375V34.9125C31.3802 35.4031 31.1853 35.8737 30.8383 36.2206C30.4914 36.5676 30.0208 36.7625 29.5302 36.7625C29.0395 36.7625 28.569 36.5676 28.222 36.2206C27.8751 35.8737 27.6802 35.4031 27.6802 34.9125V32.1375C27.6802 31.4015 27.3878 30.6957 26.8674 30.1753C26.347 29.6548 25.6412 29.3625 24.9052 29.3625Z" fill="white"/>
<path d="M30.3625 22.425C30.3625 23.897 29.7777 25.3086 28.7369 26.3494C27.6961 27.3903 26.2844 27.975 24.8125 27.975C23.3405 27.975 21.9288 27.3903 20.888 26.3494C19.8472 25.3086 19.2625 23.897 19.2625 22.425C19.2625 20.953 19.8472 19.5414 20.888 18.5006C21.9288 17.4597 23.3405 16.875 24.8125 16.875C26.2844 16.875 27.6961 17.4597 28.7369 18.5006C29.7777 19.5414 30.3625 20.953 30.3625 22.425Z" fill="white"/>
<path fill-rule="evenodd" clip-rule="evenodd" d="M24.8125 24.275C25.3031 24.275 25.7737 24.0801 26.1206 23.7331C26.4675 23.3862 26.6625 22.9157 26.6625 22.425C26.6625 21.9343 26.4675 21.4638 26.1206 21.1169C25.7737 20.7699 25.3031 20.575 24.8125 20.575C24.3218 20.575 23.8512 20.7699 23.5043 21.1169C23.1574 21.4638 22.9625 21.9343 22.9625 22.425C22.9625 22.9157 23.1574 23.3862 23.5043 23.7331C23.8512 24.0801 24.3218 24.275 24.8125 24.275ZM24.8125 27.975C26.2844 27.975 27.6961 27.3903 28.7369 26.3494C29.7777 25.3086 30.3625 23.897 30.3625 22.425C30.3625 20.953 29.7777 19.5414 28.7369 18.5006C27.6961 17.4597 26.2844 16.875 24.8125 16.875C23.3405 16.875 21.9288 17.4597 20.888 18.5006C19.8472 19.5414 19.2625 20.953 19.2625 22.425C19.2625 23.897 19.8472 25.3086 20.888 26.3494C21.9288 27.3903 23.3405 27.975 24.8125 27.975Z" fill="white"/>
<path d="M11.8625 24.275H21.1125V31.675H11.8625V24.275ZM28.5125 24.275H37.7625V31.675H28.5125V24.275Z" fill="white"/>
<path d="M21.1125 27.975H28.5125L29.4375 36.7625H20.1875L21.1125 27.975Z" fill="white"/>
</g>
<path fill-rule="evenodd" clip-rule="evenodd" d="M13.2502 19.65C14.2315 19.65 15.1726 19.2602 15.8665 18.5663C16.5604 17.8724 16.9502 16.9313 16.9502 15.95C16.9502 14.9687 16.5604 14.0276 15.8665 13.3337C15.1726 12.6398 14.2315 12.25 13.2502 12.25C12.2689 12.25 11.3278 12.6398 10.6339 13.3337C9.94002 14.0276 9.5502 14.9687 9.5502 15.95C9.5502 16.9313 9.94002 17.8724 10.6339 18.5663C11.3278 19.2602 12.2689 19.65 13.2502 19.65ZM13.2502 21.5C13.979 21.5 14.7007 21.3565 15.3741 21.0776C16.0474 20.7986 16.6593 20.3898 17.1746 19.8745C17.69 19.3591 18.0988 18.7473 18.3777 18.0739C18.6566 17.4006 18.8002 16.6789 18.8002 15.95C18.8002 15.2212 18.6566 14.4995 18.3777 13.8261C18.0988 13.1528 17.69 12.5409 17.1746 12.0256C16.6593 11.5102 16.0474 11.1014 15.3741 10.8225C14.7007 10.5436 13.979 10.4 13.2502 10.4C11.7782 10.4 10.3666 10.9848 9.32575 12.0256C8.28493 13.0664 7.7002 14.4781 7.7002 15.95C7.7002 17.422 8.28493 18.8336 9.32575 19.8745C10.3666 20.9153 11.7782 21.5 13.2502 21.5Z" fill="white"/>
<path fill-rule="evenodd" clip-rule="evenodd" d="M11.13 19.4576C11.2162 19.5435 11.2845 19.6456 11.3312 19.758C11.3778 19.8704 11.4018 19.9908 11.4018 20.1125C11.4018 20.2342 11.3778 20.3547 11.3312 20.467C11.2845 20.5794 11.2162 20.6815 11.13 20.7674L10.5047 21.3909C9.30139 22.5946 8.6253 24.2269 8.62515 25.9289V29.3625C8.62515 29.6078 8.52769 29.8431 8.35422 30.0166C8.18075 30.1901 7.94547 30.2875 7.70015 30.2875C7.45482 30.2875 7.21954 30.1901 7.04607 30.0166C6.8726 29.8431 6.77515 29.6078 6.77515 29.3625V25.9289C6.77541 23.7363 7.64647 21.6335 9.1968 20.0829L9.82025 19.4576C9.90617 19.3715 10.0082 19.3031 10.1206 19.2565C10.233 19.2099 10.3535 19.1859 10.4751 19.1859C10.5968 19.1859 10.7173 19.2099 10.8297 19.2565C10.942 19.3031 11.0441 19.3715 11.13 19.4576ZM32.9452 18.9026C32.8591 18.9885 32.7908 19.0906 32.7441 19.203C32.6975 19.3154 32.6735 19.4358 32.6735 19.5575C32.6735 19.6792 32.6975 19.7997 32.7441 19.912C32.7908 20.0244 32.8591 20.1265 32.9452 20.2124L33.5705 20.8359C34.7739 22.0396 35.45 23.6719 35.4501 25.3739V29.3625C35.4501 29.6078 35.5476 29.8431 35.7211 30.0166C35.8945 30.1901 36.1298 30.2875 36.3751 30.2875C36.6205 30.2875 36.8557 30.1901 37.0292 30.0166C37.2027 29.8431 37.3001 29.6078 37.3001 29.3625V25.3739C37.2999 23.1813 36.4288 21.0785 34.8785 19.5279L34.255 18.9026C34.1691 18.8165 34.067 18.7481 33.9547 18.7015C33.8423 18.6549 33.7218 18.6309 33.6001 18.6309C33.4785 18.6309 33.358 18.6549 33.2456 18.7015C33.1332 18.7481 33.0312 18.8165 32.9452 18.9026Z" fill="white"/>
<path fill-rule="evenodd" clip-rule="evenodd" d="M29.9001 19.65C28.9188 19.65 27.9777 19.2602 27.2838 18.5663C26.5899 17.8724 26.2001 16.9313 26.2001 15.95C26.2001 14.9687 26.5899 14.0276 27.2838 13.3337C27.9777 12.6398 28.9188 12.25 29.9001 12.25C30.8814 12.25 31.8225 12.6398 32.5164 13.3337C33.2103 14.0276 33.6001 14.9687 33.6001 15.95C33.6001 16.9313 33.2103 17.8724 32.5164 18.5663C31.8225 19.2602 30.8814 19.65 29.9001 19.65ZM29.9001 21.5C29.1713 21.5 28.4496 21.3565 27.7762 21.0776C27.1028 20.7986 26.491 20.3898 25.9757 19.8745C25.4603 19.3591 25.0515 18.7473 24.7726 18.0739C24.4937 17.4006 24.3501 16.6789 24.3501 15.95C24.3501 15.2212 24.4937 14.4995 24.7726 13.8261C25.0515 13.1528 25.4603 12.5409 25.9757 12.0256C26.491 11.5102 27.1028 11.1014 27.7762 10.8225C28.4496 10.5436 29.1713 10.4 29.9001 10.4C31.3721 10.4 32.7837 10.9848 33.8245 12.0256C34.8654 13.0664 35.4501 14.4781 35.4501 15.95C35.4501 17.422 34.8654 18.8336 33.8245 19.8745C32.7837 20.9153 31.3721 21.5 29.9001 21.5ZM21.5751 27.5125C20.3485 27.5125 19.1721 27.9998 18.3047 28.8672C17.4374 29.7345 16.9501 30.9109 16.9501 32.1375V34.5425C16.9501 34.7878 16.8526 35.0231 16.6792 35.1966C16.5057 35.3701 16.2704 35.4675 16.0251 35.4675C15.7798 35.4675 15.5445 35.3701 15.371 35.1966C15.1976 35.0231 15.1001 34.7878 15.1001 34.5425V32.1375C15.1001 30.4202 15.7823 28.7733 16.9966 27.559C18.2109 26.3447 19.8578 25.6625 21.5751 25.6625C23.2924 25.6625 24.9393 26.3447 26.1536 27.559C27.3679 28.7733 28.0501 30.4202 28.0501 32.1375V34.5425C28.0501 34.7878 27.9526 35.0231 27.7792 35.1966C27.6057 35.3701 27.3704 35.4675 27.1251 35.4675C26.8798 35.4675 26.6445 35.3701 26.471 35.1966C26.2976 35.0231 26.2001 34.7878 26.2001 34.5425V32.1375C26.2001 31.5302 26.0805 30.9287 25.848 30.3676C25.6156 29.8065 25.2749 29.2966 24.8455 28.8672C24.416 28.4377 23.9061 28.097 23.345 27.8646C22.7839 27.6322 22.1825 27.5125 21.5751 27.5125Z" fill="white"/>
<path fill-rule="evenodd" clip-rule="evenodd" d="M21.5751 24.7374C22.5564 24.7374 23.4976 24.3476 24.1914 23.6537C24.8853 22.9598 25.2751 22.0187 25.2751 21.0374C25.2751 20.0561 24.8853 19.115 24.1914 18.4211C23.4976 17.7272 22.5564 17.3374 21.5751 17.3374C20.5938 17.3374 19.6527 17.7272 18.9589 18.4211C18.265 19.115 17.8751 20.0561 17.8751 21.0374C17.8751 22.0187 18.265 22.9598 18.9589 23.6537C19.6527 24.3476 20.5938 24.7374 21.5751 24.7374ZM21.5751 26.5874C23.0471 26.5874 24.4588 26.0027 25.4996 24.9619C26.5404 23.921 27.1251 22.5094 27.1251 21.0374C27.1251 19.5655 26.5404 18.1538 25.4996 17.113C24.4588 16.0722 23.0471 15.4874 21.5751 15.4874C20.1032 15.4874 18.6915 16.0722 17.6507 17.113C16.6099 18.1538 16.0251 19.5655 16.0251 21.0374C16.0251 22.5094 16.6099 23.921 17.6507 24.9619C18.6915 26.0027 20.1032 26.5874 21.5751 26.5874Z" fill="white"/>
</svg>
