<svg width="43" height="43" viewBox="0 0 43 43" fill="none" xmlns="http://www.w3.org/2000/svg">
<path d="M21.5 0C9.62587 0 0 9.62587 0 21.5C0 33.3741 9.62587 43 21.5 43C33.3741 43 43 33.3741 43 21.5C43 9.62587 33.3741 0 21.5 0ZM20.7467 7.51661V11.6634H22.2821V7.51661C22.9906 7.57452 23.6921 7.71574 24.3739 7.92343V11.6634H25.9092V8.53493C26.5775 8.86757 27.2155 9.26944 27.7989 9.75269C27.8019 9.75527 27.8036 9.75799 27.8067 9.76057V25.0799C27.8037 25.0824 27.802 25.0851 27.7989 25.0877C26.0518 26.5296 23.8151 27.3571 21.5 27.3579C19.2373 27.3536 16.9835 26.5641 15.2012 25.0877C15.1981 25.0852 15.1965 25.0825 15.1933 25.0799V9.76057C15.1964 9.75799 15.1981 9.75527 15.2012 9.75269C15.7887 9.2679 16.4346 8.85961 17.1171 8.52178V11.6633H18.6551V7.9129C19.3325 7.70789 20.033 7.57226 20.7467 7.51661ZM12.1751 19.7573H13.986V26.6992C16.0366 28.3737 18.6505 29.3788 21.5 29.3788C24.3495 29.3788 26.9635 28.3737 29.014 26.6992V19.7573H30.8248V27.602C30.2628 28.1207 29.6562 28.5911 29.014 29.0113C27.5344 29.9794 25.8607 30.6709 24.0615 31.0112V33.5623H27.0902V35.4834H15.9098V33.5623H18.9385V31.0112C17.1393 30.6709 15.4656 29.9794 13.986 29.0113C13.3438 28.5911 12.7372 28.1207 12.1751 27.602V19.7573ZM18.9385 31.0112C19.7679 31.1682 20.6251 31.2501 21.5 31.2501C22.3749 31.2501 23.2321 31.1682 24.0615 31.0112V30.1058H18.9385V31.0112Z" fill="#EEA72A"/>
</svg>
