<svg width="44" height="44" viewBox="0 0 44 44" fill="none" xmlns="http://www.w3.org/2000/svg">
<circle cx="22" cy="22" r="22" fill="#3C9C48"/>
<path d="M31.5416 12.1667H28.9583V10.875C28.9583 10.5325 28.8222 10.2039 28.5799 9.96169C28.3377 9.71946 28.0092 9.58337 27.6666 9.58337C27.324 9.58337 26.9955 9.71946 26.7532 9.96169C26.511 10.2039 26.3749 10.5325 26.3749 10.875V12.1667H18.6249V10.875C18.6249 10.5325 18.4888 10.2039 18.2466 9.96169C18.0044 9.71946 17.6758 9.58337 17.3333 9.58337C16.9907 9.58337 16.6621 9.71946 16.4199 9.96169C16.1777 10.2039 16.0416 10.5325 16.0416 10.875V12.1667H13.4583C12.4305 12.1667 11.4449 12.575 10.7182 13.3017C9.99151 14.0284 9.58325 15.014 9.58325 16.0417V31.5417C9.58325 32.5694 9.99151 33.555 10.7182 34.2817C11.4449 35.0084 12.4305 35.4167 13.4583 35.4167H31.5416C32.5693 35.4167 33.5549 35.0084 34.2816 34.2817C35.0083 33.555 35.4166 32.5694 35.4166 31.5417V16.0417C35.4166 15.014 35.0083 14.0284 34.2816 13.3017C33.5549 12.575 32.5693 12.1667 31.5416 12.1667ZM32.8333 31.5417C32.8333 31.8843 32.6972 32.2128 32.4549 32.4551C32.2127 32.6973 31.8842 32.8334 31.5416 32.8334H13.4583C13.1157 32.8334 12.7871 32.6973 12.5449 32.4551C12.3027 32.2128 12.1666 31.8843 12.1666 31.5417V22.5H32.8333V31.5417ZM32.8333 19.9167H12.1666V16.0417C12.1666 15.6991 12.3027 15.3706 12.5449 15.1284C12.7871 14.8861 13.1157 14.75 13.4583 14.75H16.0416V16.0417C16.0416 16.3843 16.1777 16.7128 16.4199 16.9551C16.6621 17.1973 16.9907 17.3334 17.3333 17.3334C17.6758 17.3334 18.0044 17.1973 18.2466 16.9551C18.4888 16.7128 18.6249 16.3843 18.6249 16.0417V14.75H26.3749V16.0417C26.3749 16.3843 26.511 16.7128 26.7532 16.9551C26.9955 17.1973 27.324 17.3334 27.6666 17.3334C28.0092 17.3334 28.3377 17.1973 28.5799 16.9551C28.8222 16.7128 28.9583 16.3843 28.9583 16.0417V14.75H31.5416C31.8842 14.75 32.2127 14.8861 32.4549 15.1284C32.6972 15.3706 32.8333 15.6991 32.8333 16.0417V19.9167Z" fill="#FEFDFB"/>
</svg>
