<svg width="44" height="44" viewBox="0 0 44 44" fill="none" xmlns="http://www.w3.org/2000/svg">
<circle cx="22" cy="22" r="22" fill="#6E57CA"/>
<path fill-rule="evenodd" clip-rule="evenodd" d="M22.5299 27.47C22.3893 27.3295 22.1987 27.2507 21.9999 27.2507C21.8012 27.2507 21.6105 27.3295 21.4699 27.47L17.9699 30.97C17.8962 31.0387 17.8371 31.1215 17.7961 31.2135C17.7551 31.3055 17.7331 31.4048 17.7313 31.5055C17.7295 31.6062 17.7481 31.7062 17.7858 31.7996C17.8235 31.893 17.8797 31.9778 17.9509 32.049C18.0221 32.1203 18.1069 32.1764 18.2003 32.2141C18.2937 32.2518 18.3937 32.2704 18.4944 32.2686C18.5951 32.2668 18.6944 32.2448 18.7864 32.2038C18.8784 32.1628 18.9612 32.1037 19.0299 32.03L21.9999 29.06L24.9699 32.03C25.0386 32.1037 25.1214 32.1628 25.2134 32.2038C25.3054 32.2448 25.4047 32.2668 25.5054 32.2686C25.6061 32.2704 25.7061 32.2518 25.7995 32.2141C25.8929 32.1764 25.9777 32.1203 26.0489 32.049C26.1202 31.9778 26.1763 31.893 26.214 31.7996C26.2518 31.7062 26.2703 31.6062 26.2685 31.5055C26.2667 31.4048 26.2447 31.3055 26.2037 31.2135C26.1627 31.1215 26.1036 31.0387 26.0299 30.97L22.5299 27.47ZM21.9999 11.25C22.1988 11.25 22.3896 11.329 22.5302 11.4697C22.6709 11.6103 22.7499 11.8011 22.7499 12V14C22.7499 14.1989 22.6709 14.3897 22.5302 14.5303C22.3896 14.671 22.1988 14.75 21.9999 14.75C21.801 14.75 21.6102 14.671 21.4696 14.5303C21.3289 14.3897 21.2499 14.1989 21.2499 14V12C21.2499 11.8011 21.3289 11.6103 21.4696 11.4697C21.6102 11.329 21.801 11.25 21.9999 11.25Z" fill="#FEFDFB"/>
<path fill-rule="evenodd" clip-rule="evenodd" d="M31.4 28.75C31.5773 28.75 31.7528 28.7151 31.9166 28.6472C32.0804 28.5794 32.2292 28.48 32.3546 28.3546C32.48 28.2292 32.5794 28.0804 32.6472 27.9166C32.7151 27.7528 32.75 27.5773 32.75 27.4V14.6C32.75 14.4227 32.7151 14.2472 32.6472 14.0834C32.5794 13.9196 32.48 13.7708 32.3546 13.6454C32.2292 13.52 32.0804 13.4206 31.9166 13.3528C31.7528 13.2849 31.5773 13.25 31.4 13.25H12.6C12.242 13.25 11.8986 13.3922 11.6454 13.6454C11.3922 13.8986 11.25 14.242 11.25 14.6V27.4C11.25 28.146 11.854 28.75 12.6 28.75H31.4ZM19.75 22C19.75 21.8011 19.671 21.6103 19.5303 21.4697C19.3897 21.329 19.1989 21.25 19 21.25C18.8011 21.25 18.6103 21.329 18.4697 21.4697C18.329 21.6103 18.25 21.8011 18.25 22V24C18.25 24.1989 18.329 24.3897 18.4697 24.5303C18.6103 24.671 18.8011 24.75 19 24.75C19.1989 24.75 19.3897 24.671 19.5303 24.5303C19.671 24.3897 19.75 24.1989 19.75 24V22ZM22 19.25C22.1989 19.25 22.3897 19.329 22.5303 19.4697C22.671 19.6103 22.75 19.8011 22.75 20V24C22.75 24.1989 22.671 24.3897 22.5303 24.5303C22.3897 24.671 22.1989 24.75 22 24.75C21.8011 24.75 21.6103 24.671 21.4697 24.5303C21.329 24.3897 21.25 24.1989 21.25 24V20C21.25 19.8011 21.329 19.6103 21.4697 19.4697C21.6103 19.329 21.8011 19.25 22 19.25ZM25.75 18C25.75 17.8011 25.671 17.6103 25.5303 17.4697C25.3897 17.329 25.1989 17.25 25 17.25C24.8011 17.25 24.6103 17.329 24.4697 17.4697C24.329 17.6103 24.25 17.8011 24.25 18V24C24.25 24.1989 24.329 24.3897 24.4697 24.5303C24.6103 24.671 24.8011 24.75 25 24.75C25.1989 24.75 25.3897 24.671 25.5303 24.5303C25.671 24.3897 25.75 24.1989 25.75 24V18Z" fill="#FEFDFB"/>
</svg>
