<svg width="44" height="44" viewBox="0 0 44 44" fill="none" xmlns="http://www.w3.org/2000/svg">
<circle cx="22" cy="22" r="22" fill="#2488E2"/>
<path fill-rule="evenodd" clip-rule="evenodd" d="M16 16C16 15.2044 16.3161 14.4413 16.8787 13.8787C17.4413 13.3161 18.2044 13 19 13H29C29.7956 13 30.5587 13.3161 31.1213 13.8787C31.6839 14.4413 32 15.2044 32 16V28C32 28.7956 31.6839 29.5587 31.1213 30.1213C30.5587 30.6839 29.7956 31 29 31H25.49C25.8257 30.4192 26.0017 29.7599 26 29.089V23.651C25.9989 23.1351 25.8946 22.6247 25.6933 22.1496C25.4921 21.6746 25.1979 21.2447 24.828 20.885L20.828 16.974C19.52 15.694 17.53 15.487 16 16.351V16ZM27 17C27 16.7348 27.1054 16.4804 27.2929 16.2929C27.4804 16.1054 27.7348 16 28 16C28.2652 16 28.5206 16.1054 28.7081 16.2929C28.8956 16.4804 29.001 16.7348 29.001 17C29.001 17.2652 28.8956 17.5196 28.7081 17.7071C28.5206 17.8946 28.2662 18 28.001 18C27.7358 18 27.4804 17.8946 27.2929 17.7071C27.1054 17.5196 27 17.2652 27 17ZM24 16C23.7348 16 23.4804 16.1054 23.2929 16.2929C23.1054 16.4804 23 16.7348 23 17C23 17.2652 23.1054 17.5196 23.2929 17.7071C23.4804 17.8946 23.7348 18 24 18H24.001C24.2662 18 24.5206 17.8946 24.7081 17.7071C24.8956 17.5196 25.001 17.2652 25.001 17C25.001 16.7348 24.8956 16.4804 24.7081 16.2929C24.5206 16.1054 24.2662 16 24.001 16H24ZM27 22C27 21.7348 27.1054 21.4804 27.2929 21.2929C27.4804 21.1054 27.7348 21 28 21C28.2652 21 28.5206 21.1054 28.7081 21.2929C28.8956 21.4804 29.001 21.7348 29.001 22C29.001 22.2652 28.8956 22.5196 28.7081 22.7071C28.5206 22.8946 28.2662 23 28.001 23C27.7358 23 27.4804 22.8946 27.2929 22.7071C27.1054 22.5196 27 22.2652 27 22ZM28 26C27.7348 26 27.4804 26.1054 27.2929 26.2929C27.1054 26.4804 27 26.7348 27 27C27 27.2652 27.1054 27.5196 27.2929 27.7071C27.4804 27.8946 27.7348 28 28 28C28.2652 28 28.5206 27.8946 28.7081 27.7071C28.8956 27.5196 29.001 27.2652 29.001 27C29.001 26.7348 28.8956 26.4804 28.7081 26.2929C28.5206 26.1054 28.2652 26 28 26Z" fill="white"/>
<path fill-rule="evenodd" clip-rule="evenodd" d="M15.879 18.707C16.4416 18.1446 17.2045 17.8286 18 17.8286C18.7955 17.8286 19.5584 18.1446 20.121 18.707L23.121 21.707C23.6836 22.2695 23.9998 23.0324 24 23.828V28C24 28.7956 23.6839 29.5587 23.1213 30.1213C22.5587 30.6839 21.7956 31 21 31H19V28C19 27.7348 18.8946 27.4804 18.7071 27.2929C18.5196 27.1053 18.2652 27 18 27C17.7348 27 17.4804 27.1053 17.2929 27.2929C17.1054 27.4804 17 27.7348 17 28V31H15C14.2044 31 13.4413 30.6839 12.8787 30.1213C12.3161 29.5587 12 28.7956 12 28V23.828C12.0004 23.0327 12.3166 22.2702 12.879 21.708L15.879 18.707Z" fill="white"/>
</svg>
