<svg width="44" height="44" viewBox="0 0 44 44" fill="none" xmlns="http://www.w3.org/2000/svg">
<circle cx="22" cy="22" r="22" fill="#08B6B0"/>
<path d="M15 15.875C14.3078 15.875 13.6311 15.6697 13.0555 15.2851C12.4799 14.9006 12.0313 14.3539 11.7664 13.7144C11.5015 13.0749 11.4322 12.3711 11.5673 11.6922C11.7023 11.0133 12.0356 10.3896 12.5251 9.90013C13.0146 9.41064 13.6383 9.0773 14.3172 8.94225C14.9961 8.8072 15.6999 8.87652 16.3394 9.14142C16.9789 9.40633 17.5256 9.85493 17.9101 10.4305C18.2947 11.0061 18.5 11.6828 18.5 12.375C18.5 13.3033 18.1313 14.1935 17.4749 14.8499C16.8185 15.5063 15.9283 15.875 15 15.875ZM15 10.625C14.6539 10.625 14.3155 10.7276 14.0278 10.9199C13.74 11.1122 13.5157 11.3855 13.3832 11.7053C13.2508 12.0251 13.2161 12.3769 13.2836 12.7164C13.3511 13.0559 13.5178 13.3677 13.7626 13.6124C14.0073 13.8572 14.3191 14.0239 14.6586 14.0914C14.9981 14.1589 15.3499 14.1242 15.6697 13.9918C15.9895 13.8593 16.2628 13.635 16.4551 13.3472C16.6474 13.0595 16.75 12.7211 16.75 12.375C16.75 11.9109 16.5656 11.4658 16.2374 11.1376C15.9092 10.8094 15.4641 10.625 15 10.625ZM29 15.875C28.3078 15.875 27.6311 15.6697 27.0555 15.2851C26.4799 14.9006 26.0313 14.3539 25.7664 13.7144C25.5015 13.0749 25.4322 12.3711 25.5673 11.6922C25.7023 11.0133 26.0356 10.3896 26.5251 9.90013C27.0146 9.41064 27.6383 9.0773 28.3172 8.94225C28.9961 8.8072 29.6999 8.87652 30.3394 9.14142C30.9789 9.40633 31.5256 9.85493 31.9101 10.4305C32.2947 11.0061 32.5 11.6828 32.5 12.375C32.5 13.3033 32.1313 14.1935 31.4749 14.8499C30.8185 15.5063 29.9283 15.875 29 15.875ZM29 10.625C28.6539 10.625 28.3155 10.7276 28.0278 10.9199C27.74 11.1122 27.5157 11.3855 27.3832 11.7053C27.2508 12.0251 27.2161 12.3769 27.2836 12.7164C27.3512 13.0559 27.5178 13.3677 27.7626 13.6124C28.0073 13.8572 28.3191 14.0239 28.6586 14.0914C28.9981 14.1589 29.3499 14.1242 29.6697 13.9918C29.9895 13.8593 30.2628 13.635 30.4551 13.3472C30.6474 13.0595 30.75 12.7211 30.75 12.375C30.75 11.9109 30.5656 11.4658 30.2374 11.1376C29.9092 10.8094 29.4641 10.625 29 10.625ZM30.75 34.25H27.25C26.7859 34.25 26.3408 34.0656 26.0126 33.7374C25.6844 33.4093 25.5 32.9641 25.5 32.5V26.375H27.25V32.5H30.75V24.625H32.5V19.375C32.5 19.1429 32.4078 18.9204 32.2437 18.7563C32.0796 18.5922 31.8571 18.5 31.625 18.5H26.0075L22 25.5L17.9925 18.5H12.375C12.1429 18.5 11.9204 18.5922 11.7563 18.7563C11.5922 18.9204 11.5 19.1429 11.5 19.375V24.625H13.25V32.5H16.75V26.375H18.5V32.5C18.5 32.9641 18.3156 33.4093 17.9874 33.7374C17.6592 34.0656 17.2141 34.25 16.75 34.25H13.25C12.7859 34.25 12.3408 34.0656 12.0126 33.7374C11.6844 33.4093 11.5 32.9641 11.5 32.5V26.375C11.0359 26.375 10.5908 26.1906 10.2626 25.8624C9.93437 25.5343 9.75 25.0891 9.75 24.625V19.375C9.75 18.6788 10.0266 18.0111 10.5188 17.5188C11.0111 17.0266 11.6788 16.75 12.375 16.75H19.0075L22 22L24.9925 16.75H31.625C32.3212 16.75 32.9889 17.0266 33.4812 17.5188C33.9734 18.0111 34.25 18.6788 34.25 19.375V24.625C34.25 25.0891 34.0656 25.5343 33.7374 25.8624C33.4092 26.1906 32.9641 26.375 32.5 26.375V32.5C32.5 32.9641 32.3156 33.4093 31.9874 33.7374C31.6592 34.0656 31.2141 34.25 30.75 34.25Z" fill="#FEFDFB"/>
</svg>
