<svg width="50" height="46" viewBox="0 0 50 46" fill="none" xmlns="http://www.w3.org/2000/svg">
<path d="M6.29768 0.145498C17.853 -0.0829829 31.4867 -0.0185032 43.0481 0.174209C45.0791 4.48054 47.3448 9.05745 48.8981 13.5258C50.0182 16.7474 47.4574 19.8958 44.2665 20.5087C39.3213 21.4584 39.1603 18.5334 36.7556 16.9669L36.4322 17.4263C33.1032 22.1684 27.6009 21.5426 24.6257 16.7348C21.1336 21.8808 15.7185 22.1227 12.3264 16.7667C8.62654 21.9769 1.61738 22.2232 0.0277068 15.6243C-0.435753 13.7003 5.0513 1.77795 6.29768 0.145498Z" fill="#015DD3"/>
<path d="M41.2629 22.5137C43.0614 22.6736 43.1165 22.7896 44.9939 22.521L44.9747 41.4506C46.5899 41.4693 48.0722 41.3094 48.5497 43.4363C48.7932 44.5211 47.8764 45.5401 46.7246 45.5766C43.5983 45.6761 40.4448 45.6401 37.3085 45.642L18.9445 45.6445C13.2813 45.6428 7.59788 45.7039 1.9388 45.5345C1.25688 45.5143 0.535158 44.206 0.514516 43.521C1.20233 41.3099 2.36295 41.4413 4.32368 41.4552C4.36349 35.15 4.3662 28.8447 4.33155 22.5397C5.82514 22.8166 6.59159 22.776 8.07044 22.5862L8.08247 41.4759L13.9099 41.4744C13.9981 37.4871 13.9123 33.3666 13.9772 29.3406C17.5433 29.19 21.6285 29.2688 25.233 29.2584L25.2708 26.274C26.4054 24.5282 27.2222 23.5276 28.7728 22.1611C29.0404 28.1204 28.8436 35.4142 28.8337 41.4725L41.2523 41.4715L41.2535 27.6962L41.2629 22.5137Z" fill="#015DD3"/>
</svg>
