<svg width="50" height="39" viewBox="0 0 50 39" fill="none" xmlns="http://www.w3.org/2000/svg">
<path d="M27.8405 0.0216467C30.7196 -0.194998 31.2552 1.22602 30.6552 3.76782C28.0028 15.0063 25.2781 26.2434 22.3778 37.4173C22.2699 37.8328 21.4177 38.3902 21.0589 38.6302C16.2502 38.594 18.6284 33.8599 19.4093 30.7002L22.139 19.6669L25.1764 7.16062C25.7322 4.88333 26.0718 1.44312 27.8405 0.0216467Z" fill="#E51C21"/>
<path d="M35.4967 5.95006C36.2056 5.91342 37.3237 5.81105 37.8076 6.38014C39.96 8.91209 48.878 17.006 49.1657 19.9023C48.636 21.3872 39.6761 30.596 37.9282 32.495C35.3099 34.1354 33.0462 31.3655 35.095 28.8212C37.7422 25.5342 40.7824 22.5119 43.6857 19.4397C41.9253 17.552 34.1615 10.1382 34.1506 8.10483C34.1456 7.13519 34.8467 6.54939 35.4967 5.95006Z" fill="#E51C21"/>
<path d="M11.7637 5.96562C20.6767 5.36264 7.21039 17.5721 5.45793 19.4432C7.4849 21.7008 9.6942 23.8578 11.6916 26.1367C13.6935 28.4206 17.1682 30.9116 12.9756 33.078C12.4571 32.9999 11.7341 32.9026 11.3219 32.4853C7.77397 28.8956 4.05372 25.0358 0.849484 21.1422C0.366015 20.5546 0.0814887 19.7418 0 19.0444C0.287714 17.9264 10.378 7.11434 11.7637 5.96562Z" fill="#E51C21"/>
</svg>
