<svg width="44" height="46" viewBox="0 0 44 46" fill="none" xmlns="http://www.w3.org/2000/svg">
<path d="M39.8599 0.00748801C40.0725 -0.00234641 40.2561 -0.00699939 40.4687 0.0227627C41.3106 0.141552 42.1641 0.458323 42.6477 1.11464C43.5595 2.34938 43.4721 32.9808 42.7584 35.1658C42.1641 37.052 40.7338 38.6433 38.7966 39.5781C30.5992 43.4565 21.4492 33.6909 30.9138 28.8961C33.3258 27.6751 36.5448 28.1119 39.0733 28.863C39.1345 23.1805 39.1433 17.4975 39.1025 11.8147L16.3892 17.3487L16.3688 31.1358C16.3776 33.4127 16.6689 38.5838 16.1096 40.37C12.5789 51.662 -8.80307 42.5582 4.09312 34.3936C6.19636 33.0628 9.9659 33.6523 12.41 34.3351C12.4537 30.0089 11.9875 9.86288 13.0683 7.54351C14.8715 5.97932 35.8078 1.08099 39.8599 0.00748801Z" fill="#1E8D24"/>
</svg>
