<svg width="50" height="46" viewBox="0 0 50 46" fill="none" xmlns="http://www.w3.org/2000/svg">
<path d="M22.4407 20.3548C33.9224 19.2155 37.6673 28.5536 36.7808 38.6569C36.5933 40.7942 37.1581 43.1535 35.6891 44.9991C33.9899 45.962 28.798 45.5854 26.5593 45.5615C23.801 45.5566 21.0234 45.6441 18.2777 45.6259C16.2781 45.6128 12.79 46.0725 12.5391 43.1538C11.695 33.3335 11.5749 23.0606 22.4407 20.3548Z" fill="#1E8D24"/>
<path d="M23.1558 0.134802C27.4848 -0.690318 31.6273 2.35727 32.4267 6.95473C33.2264 11.5524 30.3823 15.9733 26.0624 16.8482C21.709 17.7297 17.5119 14.6779 16.7061 10.0449C15.9005 5.41187 18.7939 0.966239 23.1558 0.134802Z" fill="#1E8D24"/>
<path d="M38.4746 21.3088C40.3298 21.0987 42.24 21.2756 43.9436 22.1292C46.0704 23.2042 47.6985 25.1469 48.4587 27.5165C49.4199 30.4333 49.1248 34.5046 49.1171 37.6098C49.1129 39.3767 48.8187 40.7568 47.1101 41.3063C44.6898 41.3192 42.2317 41.281 39.8085 41.264C39.8589 33.435 40.7567 28.3662 35.8051 22.1526C36.6729 21.8501 37.5945 21.5811 38.4746 21.3088Z" fill="#1E8D24"/>
<path d="M7.66869 21.3128C10.3189 21.1764 10.7885 21.2721 13.3023 22.1924C8.42894 28.075 9.32782 33.823 9.26907 41.2881L6.42522 41.2876C4.49191 41.3487 0.431426 42.0943 0.258471 39.1782C-0.185578 31.6868 -1.06773 23.4504 7.66869 21.3128Z" fill="#1E8D24"/>
<path d="M39.3694 8.04235C42.0143 7.3459 44.6874 9.06866 45.3301 11.8837C45.9727 14.699 44.3397 17.5327 41.6889 18.2028C39.0556 18.8683 36.4115 17.1463 35.7732 14.3497C35.1348 11.5534 36.7423 8.73412 39.3694 8.04235Z" fill="#1E8D24"/>
<path d="M7.45436 8.06036C10.0801 7.36484 12.7374 9.071 13.3806 11.8655C14.024 14.6597 12.4082 17.4778 9.77714 18.1501C7.16147 18.8185 4.52996 17.1128 3.8903 14.335C3.25085 11.5569 4.84419 8.7519 7.45436 8.06036Z" fill="#1E8D24"/>
</svg>
