<svg width="50" height="50" viewBox="0 0 50 50" fill="none" xmlns="http://www.w3.org/2000/svg">
<path d="M23.1126 23.3465C28.5636 22.4581 32.5132 27.9085 28.6576 32.1336C28.0044 32.8501 26.5406 33.0726 26.1436 33.9133C27.1351 35.5188 30.4291 33.8193 33.1687 36.1783C35.772 38.4209 37.0454 45.6612 35.3444 48.3956C34.5925 49.6029 27.9551 49.0317 25.8992 49.0241C23.5661 49.0066 15.5236 49.4628 14.182 48.685C11.8301 47.3205 13.8484 38.402 15.9348 36.5907C19.2171 33.7417 20.4671 34.747 24.2005 34.4328C23.1079 33.6762 21.8392 33.2895 20.9205 32.2847C17.6476 28.7019 18.8788 25.2737 23.1126 23.3465Z" fill="#F78602"/>
<path d="M22.9434 0.140205C28.3051 -0.757045 33.4012 2.74509 34.3646 7.98664C35.3255 13.228 31.7942 18.2489 26.449 19.2358C21.038 20.2344 15.8337 16.7238 14.861 11.4188C13.886 6.11347 17.516 1.04836 22.9434 0.140205Z" fill="#F78602"/>
<path d="M23.8716 7.52106C25.0487 7.12793 26.3292 7.74465 26.7309 8.89828C27.1304 10.0519 26.5007 11.3051 25.3212 11.6969C24.1441 12.0882 22.8659 11.4714 22.4665 10.319C22.0647 9.16627 22.6944 7.91396 23.8716 7.52106Z" fill="#FFFEFF"/>
<path d="M4.9718 35.5507C5.20206 35.5402 5.43465 35.5323 5.66491 35.5268C7.53984 35.4721 10.27 35.2105 11.6868 36.5183C12.6689 38.1504 11.0548 40.4608 10.8903 42.3637C10.7705 43.7602 10.8034 45.1498 10.8222 46.5427L8.0873 46.5926C6.2852 46.5673 0.338517 47.4373 0.105912 45.0864C-0.295859 41.0354 0.265672 36.7064 4.9718 35.5507Z" fill="#F78602"/>
<path d="M39.7474 35.5445C43.6194 35.3789 48.3185 35.2795 49.0022 40.4898C49.1479 41.5935 49.3828 45.3801 48.7297 46.1875C48.1047 46.6899 47.5667 46.6103 46.749 46.6207C44.0282 46.5949 41.3051 46.5827 38.5844 46.5841C38.5656 42.1718 38.6454 40.9501 36.7165 36.945C37.8677 36.2544 38.4081 35.8801 39.7474 35.5445Z" fill="#F78602"/>
<path d="M41.0913 25.962C43.2811 25.4439 45.4873 26.7533 46.03 28.8931C46.5728 31.0331 45.25 33.2009 43.0696 33.7468C40.8658 34.2975 38.6266 32.9877 38.0792 30.8281C37.5318 28.6686 38.8827 26.4848 41.0913 25.962Z" fill="#F78602"/>
<path d="M6.4661 25.9362C8.64647 25.4821 10.7986 26.8202 11.3061 28.9462C11.8113 31.0724 10.4885 33.2046 8.32694 33.7431C6.89137 34.101 5.36886 33.6709 4.34916 32.6185C3.32711 31.5661 2.96763 30.0559 3.40699 28.6697C3.84635 27.2835 5.01643 26.238 6.4661 25.9362Z" fill="#F78602"/>
<path d="M16.8417 21.7179C15.0044 19.645 14.9574 20.6671 12.6619 19.881C11.1676 19.3697 10.6859 17.5441 11.3367 16.1791C13.3362 14.5495 15.3357 17.5535 16.4071 18.9103L20.6809 20.3271L22.201 20.6556L22.3162 20.9091C21.0944 21.3197 20.3731 21.7537 19.2664 22.3689L16.8417 21.7179Z" fill="#F78602"/>
<path d="M37.6751 10.8011C38.7535 10.136 40.1773 10.4528 40.8564 11.5087C41.5354 12.5645 41.2112 13.9595 40.1327 14.6245C39.0543 15.2891 37.6304 14.9723 36.9514 13.9164C36.2724 12.8608 36.5967 11.4659 37.6751 10.8011Z" fill="#F78602"/>
<path d="M9.08822 10.6159C9.46649 10.5846 9.84476 10.5616 10.223 10.5467C12.629 10.4613 13.6933 12.7886 11.661 14.7064C11.4424 14.7326 11.2216 14.7554 11.0031 14.7752C8.21654 15.0202 7.17334 12.594 9.08822 10.6159Z" fill="#F78602"/>
<path d="M11.0195 3.21338C14.5509 3.51335 13.7708 7.07842 11.8395 8.42389C8.334 8.18673 9.08586 4.73782 11.0195 3.21338Z" fill="#F78602"/>
<path d="M35.7955 5.48429C35.7532 4.53356 36.0492 3.99551 36.8316 3.47172C38.4269 3.02283 39.0825 3.70359 39.7098 5.06425C39.8367 6.42536 39.9636 7.94244 38.2038 8.29601C36.3523 7.99926 36.2278 7.08717 35.7955 5.48429Z" fill="#F78602"/>
<path d="M35.7955 5.48429C35.7532 4.53356 36.0492 3.99551 36.8316 3.47172C38.4269 3.02283 39.0825 3.70359 39.7098 5.06425L35.7955 5.48429Z" fill="#F78602"/>
<path d="M35.5793 15.6313C36.6695 15.5511 37.177 15.5994 37.9876 16.3635C38.8311 17.8942 37.5365 19.1118 36.4933 20.0765C35.3021 20.2458 34.6771 20.111 34.0098 19.1382C33.897 17.5259 34.5948 16.9177 35.5793 15.6313Z" fill="#F78602"/>
<path d="M27.2525 20.6035L27.4569 20.5752C29.3413 20.3036 30.6688 19.2019 32.257 19.8605C32.8092 20.5907 32.6612 20.2978 32.7528 21.2313C32.2171 22.0367 31.1692 22.2483 30.1988 22.5216C28.9207 21.6599 28.5824 21.4491 27.1233 20.8987L27.2525 20.6035Z" fill="#F78602"/>
<path d="M20.6809 20.3271C23.5919 20.3468 24.4119 19.7874 27.2525 20.6035L27.1233 20.8987C25.0158 20.6084 24.325 20.4934 22.3162 20.9091L22.201 20.6556L20.6809 20.3271Z" fill="#FEB813"/>
</svg>
