<svg width="50" height="46" viewBox="0 0 50 46" fill="none" xmlns="http://www.w3.org/2000/svg">
<path d="M24.5938 0.0115782C25.26 -0.0840297 26.1279 0.434333 26.7262 0.76224C34.0921 4.79679 41.6113 8.4862 48.9268 12.6328C48.9268 12.6328 49.146 13.1454 49.1657 13.1951C48.6046 14.7532 43.9848 15.6672 42.6655 17.1723C42.7378 18.1753 43.1454 20.1346 43.1279 20.9677C43.0139 26.2787 43.049 31.669 43.0424 36.9753C44.9644 38.8583 45.9375 42.639 43.9695 44.4804C39.5863 48.5825 36.9586 40.9186 40.7895 36.9987L40.7829 25.0888C40.7851 23.3785 41.1073 19.7989 40.2394 18.6163C38.8675 18.5973 27.2609 24.9445 24.8699 26.0175L9.09063 17.9737C6.27884 16.5317 2.68248 14.8009 0 13.17C1.94392 11.8469 6.189 9.77576 8.38714 8.62263C13.8135 5.81425 19.2157 2.94398 24.5938 0.0115782Z" fill="#5E30A7"/>
<path d="M20.4802 13.1216C21.9288 12.4264 23.2065 11.7095 24.6157 10.9119C25.1301 10.8397 27.1818 11.873 29.0747 12.9L25.0211 15.5386L20.4802 13.1216Z" fill="#FFFEFF"/>
<path d="M11.3962 23.1683C26.3186 30.6133 23.0137 30.897 37.809 23.2629C37.7323 27.408 37.8615 31.5737 37.8177 35.7403C37.581 36.3381 37.1471 36.878 36.7066 37.2858C30.8726 42.6979 16.2286 42.6835 11.2822 35.9278C11.3589 31.6754 11.3962 27.4217 11.3962 23.1683Z" fill="#5E30A7"/>
</svg>
