<svg width="50" height="51" viewBox="0 0 50 51" fill="none" xmlns="http://www.w3.org/2000/svg">
<path d="M24.4857 0.00188293C24.5198 0.00139565 24.5539 0.00115826 24.5883 0.000670983C29.7046 -0.040504 34.6336 1.8148 38.3125 5.16679C43.4837 9.9677 43.7851 14.6375 44.9576 20.8905C45.4332 22.2583 48.1756 25.0624 47.6281 26.5049C45.4043 32.3662 41.4103 34.4941 48.4545 39.5808C51.0288 41.4398 45.9086 45.0539 44.2837 46.2C42.9124 45.2673 35.7826 41.2846 34.5005 41.2631L34.1257 41.6145C33.9178 43.9656 38.6444 45.0819 39.4111 46.5552C38.4738 49.9757 24.853 50.4332 21.764 50.3216C19.5704 50.0675 10.8834 48.9356 10.2522 46.6985C11.2552 44.1829 17.5236 44.0265 17.665 40.4818C15.761 39.7457 7.08953 45.0232 5.38528 46.2563C3.54429 45.1599 0.270727 43.0117 0.00344455 40.8119C-0.119082 39.8042 3.06272 37.9604 3.87516 36.911C7.0642 32.7908 2.49765 30.2241 1.51408 26.6182C1.15633 25.0767 4.03672 22.5334 4.54104 21.1378C4.96342 19.8499 5.16246 18.3194 5.36073 16.9935C6.87989 6.8328 13.8778 0.789081 24.4857 0.00188293Z" fill="#E12F79"/>
<path d="M29.2344 10.0286C33.04 10.6932 34.0631 15.9015 36.1303 18.4846C36.7595 19.2708 37.5561 19.8443 38.373 20.4476C38.4932 28.8957 33.3559 38.6498 22.3386 36.4366C21.0392 36.1754 19.9967 35.5812 18.8727 34.9368C12.8488 30.7316 15.0687 26.2296 13.2171 24.3409L12.9256 24.3575C12.3455 24.9191 12.1594 25.7409 11.8991 26.5039L11.4708 26.3716C10.2902 25.2256 9.71661 22.0714 10.611 20.7022C11.5307 20.1423 12.8687 20.5109 13.9381 20.3918C19.1183 19.8146 24.9 17.5875 27.3529 12.9503C27.8425 12.0247 28.5166 10.7861 29.2344 10.0286Z" fill="#FFFEFF"/>
<path d="M30.133 20.4293C30.5553 20.2252 31.0615 20.2517 31.457 20.4988C31.8522 20.7458 32.0755 21.1749 32.0404 21.621C32.0052 22.0668 31.7175 22.4603 31.2879 22.6498C30.6399 22.9354 29.8685 22.6793 29.5537 22.0739C29.2388 21.4684 29.4966 20.7368 30.133 20.4293Z" fill="#E12F79"/>
<path d="M16.4323 35.8502C21.8092 38.6733 23.9795 39.5477 30.1177 37.7467C29.7429 40.0433 30.1787 40.6351 30.4328 42.8865C30.4812 43.3151 29.9936 43.5509 29.6002 43.8513C28.8532 44.2987 28.2731 44.6086 27.4436 44.9219C25.5979 45.6082 23.5375 45.57 21.7216 44.8159C16.9906 42.8856 20.3283 42.0552 19.4339 38.838C19.194 37.9748 17.7896 38.3519 16.8084 37.9826C16.2151 37.0365 16.4173 37.1198 16.4323 35.8502Z" fill="#FFFEFF"/>
</svg>
