<svg width="50" height="50" viewBox="0 0 50 50" fill="none" xmlns="http://www.w3.org/2000/svg">
<path d="M0.0841181 22.9143C2.99368 23.0054 7.61593 23.6756 10.7057 23.9885C10.7316 25.0193 10.8636 26.2282 10.9505 27.2702L8.70839 27.9414C6.03986 28.7387 3.36351 29.5102 0.679991 30.256C0.03449 27.5249 -0.119571 25.6894 0.0841181 22.9143Z" fill="#1E8D24"/>
<path d="M22.9237 38.1851C23.9053 38.2397 25.1768 38.2008 26.1816 38.1993C26.6348 40.3651 27.9071 46.6262 28.0155 48.6304C27.6175 49.0351 26.5593 49.0034 25.867 49.074C24.6393 49.314 22.2773 49.0222 20.9532 48.8884C21.6951 45.5849 22.3133 41.5638 22.9237 38.1851Z" fill="#F86519"/>
<path d="M47.1724 23.0577C47.7618 22.9607 48.2087 22.8142 48.7284 23.1117C49.6884 24.6847 48.8142 28.3048 48.4998 30.2275L41.8329 28.3201C40.6364 27.9449 39.3752 27.5959 38.1665 27.2435C38.3156 26.3044 38.3891 24.9789 38.4732 24.004C41.3758 23.716 44.2756 23.4005 47.1724 23.0577Z" fill="#E51C21"/>
<path d="M2.41549 13.995C5.37022 15.3749 8.93669 17.3844 11.8176 18.9601C11.5068 19.8587 11.2685 21.1897 10.7732 21.9421L10.3312 21.9597C6.94831 21.6557 3.56943 21.3085 0.195702 20.9181C0.775021 18.1571 1.30515 16.586 2.41549 13.995Z" fill="#015DD3"/>
<path d="M16.8573 1.22269C19.556 0.439166 20.9403 0.101472 23.7416 0.0210992L23.7215 10.6644C22.6096 10.8181 21.7309 10.9298 20.6339 11.2137L16.8573 1.22269Z" fill="#024681"/>
<path d="M11.2367 29.2331C11.6828 29.5138 12.5926 31.4454 12.89 32.0175C11.7425 32.9265 5.54551 37.9855 4.46982 38.368L4.01929 37.9819C2.75378 36.015 1.94595 34.2992 1.154 32.1141C4.52214 31.1785 7.88312 30.2182 11.2367 29.2331Z" fill="#CF8F13"/>
<path d="M37.6728 29.1117L47.9512 32.1259C47.2871 34.2158 46.5504 35.5583 45.4693 37.4515C45.1738 37.928 45.0859 38.1884 44.5732 38.3989C42.9446 37.4411 38.1097 33.4711 36.2251 32.0428C36.7695 31.0861 37.2089 30.1077 37.6728 29.1117Z" fill="#01ABB6"/>
<path d="M17.9867 36.6791C19.0474 37.1988 19.882 37.4753 20.9875 37.8556L19.1981 48.4961C18.2371 48.2658 17.1909 47.9366 16.2342 47.6579C14.8895 47.1262 13.6786 46.4759 12.3947 45.8158C14.274 42.9619 16.1995 39.6256 17.9867 36.6791Z" fill="#E12F79"/>
<path d="M30.8857 36.7437C31.5979 37.0902 35.8651 44.5931 36.6628 45.8784C35.6922 46.4292 34.5097 46.9385 33.4845 47.411C32.208 47.8952 31.2464 48.141 29.9292 48.4809C29.4796 45.064 28.7538 41.2534 28.1651 37.8265C28.9998 37.5403 30.0479 37.0814 30.8857 36.7437Z" fill="#97132E"/>
<path d="M46.5499 14.0798C47.7607 15.225 48.4916 19.3029 48.7836 20.915L39.2828 21.9554C39.1134 21.9898 38.6724 21.9863 38.4761 21.9909C37.9666 21.5153 37.5845 19.7662 37.3568 18.9798C40.3997 17.3069 43.4642 15.6732 46.5499 14.0798Z" fill="#E51C21"/>
<path d="M7.69978 6.73194C8.58877 7.42199 13.6799 13.509 14.6695 14.705C13.8903 15.5312 13.7523 16.1422 12.7911 16.8182C11.8789 16.9126 11.986 16.7783 11.0223 16.2974L3.30268 12.2705C4.73454 9.84493 5.68815 8.69662 7.69978 6.73194Z" fill="#4AB232"/>
<path d="M34.9828 33.5777C36.6722 34.5839 41.8009 38.7353 43.5129 40.1154C42.4337 41.4238 41.8883 42.0066 40.6309 43.1442C39.9259 43.7139 39.0217 44.3431 38.2794 44.8906L32.7778 35.6167C33.4803 35.0515 34.3147 34.2118 34.9828 33.5777Z" fill="#FEB813"/>
<path d="M14.0645 33.5537C14.7449 34.291 15.565 34.9693 16.3258 35.6314L10.8336 44.9055L9.36843 43.8025C7.90952 42.6631 6.82331 41.5318 5.64992 40.1178C7.87351 38.1713 11.5956 35.4935 14.0645 33.5537Z" fill="#F78602"/>
<path d="M34.0213 1.90979C36.4891 2.8747 37.9328 3.8869 40.001 5.48414C38.1879 7.6462 36.3431 9.78162 34.467 11.8897L33.0847 13.4554C32.2966 12.9124 31.2924 12.3706 30.4502 11.8873C31.5914 8.54428 32.782 5.21815 34.0213 1.90979Z" fill="#CF8F13"/>
<path d="M41.3944 6.90403C42.6434 7.40491 45.1035 11.1857 45.8027 12.2475C43.2891 13.6717 40.5367 15.0692 37.9673 16.4248L36.479 17.2128C35.8514 16.336 35.1621 15.5434 34.4663 14.7208C36.6333 12.5208 39.2057 9.32119 41.3944 6.90403Z" fill="#1E8D24"/>
<path d="M9.18285 5.41955C11.2363 3.85584 12.83 2.98084 15.1319 1.84564L16.1881 4.63558L16.6798 6.00613C17.4013 7.93995 18.1034 9.88065 18.7862 11.828C17.9332 12.2947 16.9995 12.9153 16.168 13.4392C13.8131 10.789 11.4845 8.1158 9.18285 5.41955Z" fill="#024681"/>
<path d="M25.5267 0C28.3668 0.151642 29.6341 0.391426 32.3395 1.25643L29.5068 8.71263L28.5866 11.1591C27.5815 10.9158 26.5503 10.7928 25.5254 10.6496C25.5985 7.18201 25.5299 3.48554 25.5267 0Z" fill="#E51C21"/>
</svg>
