<svg width="50" height="41" viewBox="0 0 50 41" fill="none" xmlns="http://www.w3.org/2000/svg">
<path d="M28.0258 0.239321C32.8152 0.166881 32.7902 1.81414 35.0334 5.61649C38.3306 5.76822 46.8529 4.83067 48.1047 7.2525C49.8472 10.6219 48.8132 23.3079 49.0736 27.7825C49.2088 30.126 49.2088 35.446 48.981 37.0061C48.8283 37.9831 48.3701 38.89 47.6716 39.6036C45.9191 41.3596 39.1218 40.8212 36.5456 40.8165L20.6427 40.7898C17.1602 40.7786 3.80345 41.6498 1.58275 39.6719C0.456129 38.6661 0.230812 37.6319 0.150696 36.2068C-0.119693 31.381 0.0981328 26.4321 0.100636 21.5946C0.10314 17.9403 -0.167275 14.089 0.168208 10.4606C0.250827 9.54561 0.418576 7.80241 1.11458 7.13406C3.54057 4.80326 10.8786 5.60303 14.2059 5.61062C18.5171 -1.82031 19.8841 0.290469 28.0258 0.239321Z" fill="#01ABB6"/>
<path d="M22.2224 11.1002C29.1199 9.82292 35.7594 14.2833 37.0137 21.0349C38.2655 27.7865 33.6514 34.2424 26.7339 35.4137C19.8941 36.5722 13.3772 32.1213 12.1379 25.4442C10.9011 18.7673 15.4026 12.3632 22.2224 11.1002Z" fill="#FFFEFF"/>
<path d="M23.5368 14.7153C28.3638 14.1543 32.7451 17.5191 33.3284 22.2363C33.9118 26.9534 30.4793 31.2418 25.6549 31.8218C20.8154 32.4033 16.4141 29.0353 15.8282 24.3047C15.2424 19.5743 18.6974 15.2776 23.5368 14.7153Z" fill="#01ABB6"/>
<path d="M38.3757 11.0854C41.2649 11.0644 45.4534 10.3777 43.1952 14.7781C40.3711 14.888 36.1575 15.4213 38.3757 11.0854Z" fill="#FFFEFF"/>
<path d="M6.37214 10.2779C7.33603 9.84616 8.47769 10.2563 8.92583 11.1966C9.37648 12.1366 8.96588 13.255 8.007 13.7016C7.03811 14.1529 5.87895 13.7462 5.4233 12.7956C4.97014 11.8449 5.39574 10.7145 6.37214 10.2779Z" fill="#FFFEFF"/>
</svg>
