<svg width="50" height="56" viewBox="0 0 50 56" fill="none" xmlns="http://www.w3.org/2000/svg">
<path d="M22.5584 9.4428C22.669 9.43117 22.7774 9.42117 22.8881 9.41279C26.2012 9.14314 37.098 9.39744 39.4106 11.9629C40.795 13.2491 41.5719 15.1129 41.6171 17.0718C41.9717 32.5167 42.6537 34.4261 26.7432 35.4924C21.7431 35.629 7.14695 36.0407 7.5354 27.8969C7.8448 21.3699 5.25215 11.1919 14.0329 10.0961C16.8288 9.74759 19.7105 9.61288 22.5584 9.4428Z" fill="#015DD3"/>
<path d="M30.7112 16.429C33.4507 15.5707 36.3505 17.1498 37.2064 19.9661C38.0623 22.7826 36.5515 25.7825 33.8256 26.6863C31.068 27.6004 28.114 26.024 27.2491 23.1751C26.3841 20.3264 27.9379 17.2973 30.7112 16.429Z" fill="#FFFEFF"/>
<path d="M31.5129 19.9356C32.3802 19.5317 33.4032 19.9249 33.8052 20.8167C34.205 21.7087 33.8323 22.7661 32.9696 23.1867C32.0979 23.613 31.0545 23.2233 30.648 22.3196C30.2437 21.4158 30.6299 20.3449 31.5129 19.9356Z" fill="#015DD3"/>
<path d="M15.5211 16.4399C18.2674 15.5596 21.1852 17.1377 22.0434 19.9659C22.8994 22.7938 21.3704 25.8023 18.6265 26.6875C15.878 27.5739 12.9533 25.9961 12.0951 23.1646C11.2369 20.333 12.7704 17.3212 15.5211 16.4399Z" fill="#FFFEFF"/>
<path d="M16.3477 19.9482C17.2127 19.5261 18.2448 19.9026 18.6603 20.7911C19.0759 21.6796 18.7168 22.7468 17.8564 23.1802C16.9891 23.6176 15.9435 23.2437 15.5234 22.3471C15.1033 21.4506 15.4737 20.3739 16.3477 19.9482Z" fill="#015DD3"/>
<path d="M16.3974 30.0105C17.4498 29.9196 19.1256 30.024 20.2232 30.105C24.2928 30.4051 28.306 30.0906 32.3757 30.0866C32.798 30.0861 32.9696 30.4647 33.2022 30.7709C33.2203 31.6985 33.2271 31.4139 32.7167 32.2922C30.0608 32.5369 18.0009 33.6718 16.2213 31.6412C16.0203 30.7439 16.0857 30.9896 16.3974 30.0105Z" fill="#FFFEFF"/>
<path d="M15.9728 40.2909C17.0636 40.4891 17.4521 41.7764 18.6513 42.5048C23.3217 45.3435 29.6769 45.2539 32.6986 40.0889C40.6437 41.6121 42.4279 46.3767 41.5109 54.3003C41.4093 55.1785 34.808 55.1222 33.8007 54.4385C33.2384 53.0116 33.5681 49.2716 33.6471 47.5642C34.4873 48.4929 35.5803 50.0671 36.7502 48.7679C37.1996 46.3202 34.6205 44.3512 32.2786 45.6017C30.9484 47.3895 31.1855 49.9871 31.1832 52.1915C28.4709 52.4525 21.314 52.2748 18.5361 52.1822C18.6716 38.8863 11.7564 47.3152 13.1453 49.4291C14.4936 49.4729 15.1824 48.6384 16.0722 47.7287C16.1016 50.0838 16.0993 52.4393 16.0654 54.7944C14.4168 54.9024 8.86336 55.6918 8.68495 53.4764C8.19713 47.4737 9.64701 41.9032 15.9728 40.2909Z" fill="#015DD3"/>
<path d="M44.7947 17.1773C49.456 18.1963 50.5378 22.7266 47.3196 26.2111C47.2405 26.2669 47.1615 26.3213 47.0802 26.3746C46.2333 26.9365 45.8832 27.0684 44.9573 26.8646C43.609 25.742 43.8303 18.4543 44.7947 17.1773Z" fill="#015DD3"/>
<path d="M3.81351 17.197C4.28552 17.3196 4.43232 17.4353 4.85916 17.6884C5.14823 18.6569 5.16631 25.4142 4.69882 26.6987C4.61526 26.9269 4.45942 26.9292 4.18842 27.0626C3.40249 27.0989 2.88304 26.7606 2.16938 26.4079C-1.38762 23.3317 -0.382617 18.9752 3.81351 17.197Z" fill="#015DD3"/>
<path d="M19.1098 37.9015C22.1903 37.9739 27.1972 37.6942 30.0676 38.0232C30.8332 39.1044 30.0405 39.9208 29.3043 40.7006C26.2735 42.1131 19.0849 42.9823 19.1098 37.9015Z" fill="#015DD3"/>
<path d="M23.7824 0.0181314C28.0463 -0.264546 26.969 2.81164 25.693 5.50417C25.6162 5.6647 25.6478 7.00433 25.6569 7.23024C25.0561 7.23839 24.4961 7.20255 23.8976 7.16742C23.3443 6.32288 23.7056 5.10981 23.4165 4.47466C22.4454 2.33469 21.4337 2.03363 23.7824 0.0181314Z" fill="#015DD3"/>
</svg>
