<svg width="50" height="46" viewBox="0 0 50 46" fill="none" xmlns="http://www.w3.org/2000/svg">
<path d="M8.9294 0.0380849C15.4562 -0.362639 20.9043 2.38596 21.8941 8.89784C22.1478 10.5666 21.842 11.9687 21.5929 13.6301C24.4006 16.7003 29.8155 20.9594 33.0825 23.8779C34.2957 24.9617 36.8988 26.2213 38.5204 27.7483C41.4821 30.6752 45.7726 33.8377 48.3665 36.9176C51.1453 40.2171 46.1023 45.9255 42.0503 45.6438C38.8224 45.4195 36.5191 42.6248 34.5121 40.7198C32.3797 38.6496 29.6664 36.3259 27.4212 34.3003C27.409 33.8438 27.3806 33.3877 27.3356 32.9329C27.0959 30.7169 16.7528 21.7904 14.583 20.1566C6.08862 21.0058 -0.976867 18.3057 0.110933 8.68928C0.165539 8.207 0.565558 8.02234 0.971928 7.84331C3.55212 8.06499 5.82322 13.8567 9.13182 12.4106C9.98799 12.0361 13.1922 9.39067 13.4505 8.62789C14.532 5.43264 9.84144 4.17493 8.44912 1.51023C8.41813 0.59536 8.39401 0.896713 8.9294 0.0380849Z" fill="#F78602"/>
<path d="M41.3135 36.9317C42.2926 36.5396 43.4251 36.6659 44.2749 37.2621C45.1247 37.858 45.5593 38.8312 45.4117 39.8066C45.2642 40.7821 44.5571 41.608 43.563 41.9665C42.0642 42.5071 40.3727 41.8404 39.7594 40.4679C39.1463 39.0956 39.8373 37.5227 41.3135 36.9317Z" fill="#FFFEFF"/>
<path d="M14.8578 25.5982C17.42 25.512 19.8673 28.6264 21.6355 30.3169L21.1174 32.43C17.7143 35.5041 10.3847 43.8774 6.50541 45.2222C-0.0305337 45.4245 -2.04892 39.9243 2.82167 36.063C6.89704 32.8321 10.6892 28.7302 14.8578 25.5982Z" fill="#F78602"/>
<path d="M4.63307 38.551C5.60252 38.088 6.79546 38.4306 7.30876 39.3194C7.82205 40.2085 7.4647 41.313 6.50745 41.7971C5.87809 42.1156 5.11183 42.0971 4.50126 41.7486C3.89069 41.4004 3.53029 40.7761 3.55746 40.1143C3.58489 39.4525 3.99558 38.8554 4.63307 38.551Z" fill="#FFFEFF"/>
<path d="M38.0452 1.01019C39.3469 0.910831 40.4167 0.678126 41.2086 1.70361C41.2345 4.31769 34.5784 6.05838 36.8901 9.50625C41.584 16.5072 46.0876 7.75057 48.3193 8.36665C50.2538 11.347 46.8972 15.5281 44.4316 17.3712C41.1997 19.0866 38.9555 18.9153 35.5255 18.2831L33.164 20.3645L27.837 15.4916L30.2056 13.2445C30.1396 12.9862 30.0776 12.727 30.02 12.4672C28.7257 6.6051 31.567 2.11535 38.0452 1.01019Z" fill="#F78602"/>
</svg>
