<svg width="1280" height="45" viewBox="0 0 1280 45" fill="none" xmlns="http://www.w3.org/2000/svg" xmlns:xlink="http://www.w3.org/1999/xlink">
<g id="Repeat group 1_inner" data-figma-trr="l3u1-0f">
<path d="M6.12559 44.2648C5.53323 43.6664 4.71178 42.7216 4.48465 41.9195C3.26034 37.582 2.52248 33.1354 1.72725 28.7033C0.659859 22.754 -0.935523 16.771 -1.13579 10.7101C-1.18654 9.17129 -0.631549 6.88244 1.40927 7.01989C2.56129 7.09751 3.65724 7.63068 4.8212 7.67533C7.64803 7.98423 11.5077 6.62156 13.6289 8.99179C14.9408 10.4579 15.3934 13.6323 15.4214 15.596C15.4305 16.2318 15.141 17.0278 14.6733 17.5246C13.4957 18.7754 8.09204 17.9434 8.10749 19.8669C8.11216 20.4532 8.57409 23.2416 9.14569 23.7608C9.47756 24.0623 9.66861 24.183 10.1399 24.1848C12.1597 24.1923 14.9276 21.5604 16.7806 23.3475C17.6464 24.1826 18.0516 26.1502 18.0058 27.3692C17.9538 28.7555 17.8379 29.3154 17.0045 30.3115C15.6159 31.971 10.9138 31.3688 10.9428 33.3251C10.98 35.834 12.345 40.4531 12.3897 42.7813C12.0474 43.4134 11.9018 43.7015 11.4365 44.2648H6.12559Z" fill="#00AEEF"/>
<path d="M76.7364 10.7262C76.996 10.7016 77.2568 10.6798 77.5164 10.6608C78.8598 10.5596 80.2887 10.5449 81.3608 11.4986C81.9228 11.9981 82.259 12.6766 82.3485 13.419C82.503 14.6991 82.0474 16.1804 81.8839 17.4637C81.684 19.0324 81.6373 20.5341 81.7216 22.1125C83.3284 20.3977 84.8833 18.496 86.1799 16.537C87.1339 15.0973 87.9671 13.4152 89.1093 12.1279C89.4377 11.7572 89.7712 11.5517 90.2489 11.414C91.5662 11.0337 94.1529 11.0786 95.3574 11.7529C96.0505 12.1412 96.606 12.7483 96.8098 13.5271C97.5379 16.2972 94.5384 20.7509 92.8421 22.7124C91.5688 24.1842 89.8751 25.5949 88.9094 27.2811L88.877 27.3401C90.1308 28.7775 91.9439 30.015 93.3729 31.3064C94.153 32.0117 94.9473 32.724 95.6455 33.512C96.4515 34.4225 97.1836 35.4346 98.0467 36.2899C99.0928 37.3265 100.37 38.1237 101.352 39.2273C101.447 39.5149 101.55 39.8115 101.607 40.1095C101.711 40.662 101.535 41.2888 101.199 41.7313C100.735 42.3414 100.109 42.6282 99.3601 42.7177C98.3789 42.8359 97.2147 42.6593 96.3282 42.2142C95.36 41.7287 94.5527 40.8454 93.7013 40.1745C90.3073 37.5006 87.0612 34.657 83.675 31.9795C83.9709 33.3604 85.8996 38.2897 85.6452 39.2135C85.4622 39.8835 84.7717 40.1787 84.211 40.4773C81.7476 40.4607 79.9785 40.1186 78.0797 38.4692C75.3697 36.1149 72.8985 28.5461 72.1236 25.029C71.8005 23.5578 71.6395 22.081 71.5344 20.5799C71.367 18.2001 71.2125 13.9482 72.8985 12.0593C73.9031 10.9329 75.3256 10.804 76.7364 10.7262Z" fill="#E8422E"/>
<path d="M149.889 0.95867C150.535 0.867427 151.122 0.882876 151.704 1.21267C152.512 1.66928 153.052 2.60234 153.272 3.4792C154.037 6.51435 152.178 11.0562 150.601 13.6165C149.691 15.0927 148.547 16.4298 147.668 17.9125C147.519 18.163 147.307 18.5782 147.45 18.8643C147.755 19.473 151.233 21.9184 151.995 22.606C153.408 23.8796 154.462 25.353 155.759 26.714C156.803 27.8096 158.059 28.7581 159.023 29.9163C159.35 30.3101 159.636 30.768 159.751 31.2725C159.868 31.7904 159.797 32.3322 159.507 32.7824C159.03 33.5236 158.273 34.0411 157.409 34.2182C156.496 34.408 155.451 34.2976 154.591 33.9436C153.484 33.4881 152.541 32.6176 151.595 31.8972C150.091 30.7524 148.521 29.7018 147.076 28.4782C145.609 27.2347 144.248 25.7452 142.651 24.6785C142.755 26.721 143.307 29.0424 143.93 30.9918C143.956 31.1044 143.979 31.2172 143.997 31.3317C144.092 31.9514 143.991 32.5451 143.599 33.0469C142.908 33.9328 141.74 34.375 140.659 34.5052C139.337 34.6644 138.079 34.3768 137.024 33.5368C134.399 31.4489 132.92 20.2698 132.52 16.7177C132.205 13.9117 131.467 7.85456 133.296 5.61658C134.176 4.53907 136.707 3.33981 138.104 3.21157C138.649 3.16147 139.204 3.26881 139.631 3.62755C140.157 4.06832 140.406 4.75517 140.532 5.4097C140.801 6.80196 140.583 8.3527 140.607 9.77131C140.637 11.4277 140.798 13.0882 140.928 14.7394C142.092 12.6811 143.119 10.5467 143.997 8.35075C144.796 6.35575 145.219 3.8469 146.517 2.12121C147.273 1.11455 148.74 1.11585 149.889 0.95867Z" fill="#E8422E"/>
<path d="M21.1586 6.31352C22.4546 6.18619 23.7677 6.08704 24.9345 6.78946C25.7258 7.26579 26.2755 8.04908 26.5809 8.91011C27.0538 10.2429 26.9974 11.7572 27.1591 13.1543C27.4018 15.2513 27.707 17.3979 28.2034 19.4496C28.886 17.5265 29.5697 15.594 30.1483 13.6368C30.5865 12.1547 30.8984 10.5076 31.507 9.09843C31.7319 8.57758 32.1002 7.8784 32.6351 7.61597C33.3875 7.24671 35.1835 7.6684 35.9529 7.90241C36.8722 8.18198 37.5971 8.92438 38.0188 9.76581C40.4081 14.5337 35.0485 20.9226 33.6006 25.2138C34.5582 26.8823 36.26 28.3228 37.4977 29.8134C38.5783 31.1146 39.5288 32.551 40.642 33.8163C41.3588 34.631 42.3016 35.3955 42.8731 36.3112C43.1075 36.6867 43.1843 37.1174 43.2635 37.5466C43.0606 38.2929 42.836 38.9041 42.2683 39.452C41.7669 39.936 41.1432 40.123 40.4535 40.0973C37.3707 39.9826 32.4644 33.5224 30.3448 31.2501C30.5391 33.4289 31.8811 37.6378 31.4366 39.4943C31.274 40.1732 30.9019 40.7895 30.2906 41.1512C29.663 41.5211 28.7424 41.6703 28.0343 41.4809C27.115 41.2355 26.289 40.4774 25.8365 39.6554C24.6217 37.4476 23.2124 28.9408 22.4815 25.9158C21.4147 21.5013 20.0357 17.1331 19.1102 12.6915C18.8726 11.5516 18.2589 9.5488 18.5802 8.467C18.7299 7.96342 18.8737 7.48864 19.2341 7.09071C19.7947 6.472 20.3526 6.36426 21.1586 6.31352Z" fill="#E8422E"/>
<path d="M170.22 0.675719C171.524 0.6691 172.827 1.02654 174.119 1.19696C176.573 1.52117 179.181 1.51222 181.532 2.36326C182.917 2.86463 184.113 3.77992 184.734 5.14362C185.305 6.39792 185.591 8.89625 185.063 10.2018C184.725 11.0374 184.118 11.3242 183.334 11.6557C181.887 11.3284 178.861 10.7528 177.448 11.229C177.119 11.3397 176.878 11.5306 176.725 11.847C176.146 13.0533 177.068 15.2657 177.485 16.4391C179.165 16.6454 180.652 16.265 182.308 16.1431C183.395 16.063 184.331 16.2534 185.155 16.9948C186.274 18.0012 186.869 19.5605 186.945 21.0415C186.99 21.9266 186.859 22.9339 186.224 23.6056C185.902 23.9467 185.506 24.1467 185.05 24.2381C183.848 24.4785 180.908 24.2305 179.476 24.2558C178.555 26.2375 181.948 33.1057 181.069 35.3474C180.831 35.9551 180.346 36.3896 179.757 36.6469C178.735 37.0832 177.584 37.0958 176.555 36.682C174.962 36.0409 174.067 34.6546 173.414 33.1464C170.951 27.4507 165.928 8.33452 168.23 2.67618C168.664 1.60995 169.166 1.11882 170.22 0.675719Z" fill="#00AEEF"/>
<path d="M125.449 9.26863C126.007 9.24396 126.534 9.39647 126.985 9.73094C127.493 10.1058 127.753 10.6475 127.823 11.2652C127.897 11.9138 127.837 12.6051 127.806 13.256C127.479 20.1656 120.501 17.975 118.959 20.3091C118.543 20.9399 118.384 22.5646 118.514 23.2703C118.587 23.6609 118.749 23.872 119.075 24.0931C120.741 24.5975 123.322 22.4783 125.006 22.0804C125.655 21.9271 126.46 21.8775 127.045 22.2557C127.454 22.5202 127.646 22.9553 127.74 23.4177C128.865 28.9518 121.318 29.3084 120.068 31.2201C119.645 32.6222 121.094 36.5612 121.68 37.9725C121.741 38.1855 121.806 38.4033 121.837 38.6233C121.938 39.3378 121.482 40.0577 121.057 40.5887C120.252 41.5937 119.084 42.1738 117.811 42.3101C116.97 42.3997 116.213 42.2219 115.561 41.6703C112.776 39.3092 110.832 28.9969 110.479 25.218C110.121 21.3848 110 15.2281 112.642 12.1456C113.069 11.6478 113.577 11.5427 114.187 11.386C115.625 11.0173 117.162 11.0509 118.624 10.766C120.87 10.329 123.177 9.45033 125.449 9.26863Z" fill="#00AEEF"/>
<path d="M52.7742 11.3207C54.2538 11.15 55.8268 11.7119 57.3128 11.833C59.6686 12.0251 62.4116 11.675 64.6876 12.3482C65.7023 12.6485 66.3318 13.625 66.8237 14.4872C66.8172 15.5809 66.8717 16.7884 66.5563 17.8428C66.1942 19.0544 65.4337 19.772 64.3552 20.3679C62.6008 20.4129 60.4945 20.0234 58.7862 20.4496C58.3342 20.5624 57.9553 20.7493 57.7127 21.1685C57.1578 22.1278 57.5484 23.4975 57.7976 24.5023C59.2355 24.6387 60.6276 24.3047 62.0438 24.1032C63.2645 23.9296 64.6116 24.0801 65.6141 24.8608C66.0839 25.2273 66.3409 25.6956 66.3954 26.2897C66.4772 27.1921 66.1306 28.3254 65.5271 29.0068C64.725 29.9134 63.5683 29.9299 62.4517 29.9993C61.3372 30.2387 60.0632 30.197 59.0051 30.6158C57.7998 31.8415 60.8169 36.2722 60.5309 37.9478C60.4593 38.3673 60.217 38.7018 59.8669 38.9342C59.0604 39.4698 57.448 39.6367 56.5054 39.4404C55.2779 39.1849 54.3017 38.2823 53.6462 37.2502C50.5263 32.3383 49.4031 20.1784 50.6996 14.5786C51.028 13.1606 51.5126 12.1085 52.7742 11.3207Z" fill="#00AEEF"/>
<path d="M-11.4962 4.81678C-10.4845 4.72813 -9.28792 4.82911 -8.28996 5.0286C-6.96804 5.29272 -5.71855 5.92221 -4.96525 7.08214C-4.54862 7.7237 -4.35135 8.88532 -4.22272 9.64122C-3.77637 12.2645 -3.68746 14.9787 -3.33275 17.6218C-2.58918 23.0839 -1.54073 28.5003 -0.192212 33.8453C0.203649 35.3888 1.73336 39.781 1.43393 41.0741C1.22886 41.9598 0.493602 42.4374 -0.227254 42.8878C-0.924357 43.063 -1.70038 42.941 -2.39865 42.8073C-3.85048 42.5296 -5.05377 41.695 -5.8756 40.4769C-6.733 39.2059 -7.35729 37.7243 -7.85244 36.2793C-9.61045 31.1484 -14.0552 11.7646 -12.9498 6.61126C-12.7606 5.7292 -12.2282 5.28376 -11.4962 4.81678Z" fill="#4C9F37"/>
<path d="M6.12559 44.2648C5.53323 43.6664 4.71178 42.7216 4.48465 41.9195C3.26034 37.582 2.52248 33.1354 1.72725 28.7033C0.659859 22.754 -0.935523 16.771 -1.13579 10.7101C-1.18654 9.17129 -0.631549 6.88244 1.40927 7.01989C2.56129 7.09751 3.65724 7.63068 4.8212 7.67533C7.64803 7.98423 11.5077 6.62156 13.6289 8.99179C14.9408 10.4579 15.3934 13.6323 15.4214 15.596C15.4305 16.2318 15.141 17.0278 14.6733 17.5246C13.4957 18.7754 8.09204 17.9434 8.10749 19.8669C8.11216 20.4532 8.57409 23.2416 9.14569 23.7608C9.47756 24.0623 9.66861 24.183 10.1399 24.1848C12.1597 24.1923 14.9276 21.5604 16.7806 23.3475C17.6464 24.1826 18.0516 26.1502 18.0058 27.3692C17.9538 28.7555 17.8379 29.3154 17.0045 30.3115C15.6159 31.971 10.9138 31.3688 10.9428 33.3251C10.98 35.834 12.345 40.4531 12.3897 42.7813C12.0474 43.4134 11.9018 43.7015 11.4365 44.2648H6.12559Z" fill="#00AEEF"/>
<path d="M-11.4962 4.81678C-10.4845 4.72813 -9.28792 4.82911 -8.28996 5.0286C-6.96804 5.29272 -5.71855 5.92221 -4.96525 7.08214C-4.54862 7.7237 -4.35135 8.88532 -4.22272 9.64122C-3.77637 12.2645 -3.68746 14.9787 -3.33275 17.6218C-2.58918 23.0839 -1.54073 28.5003 -0.192212 33.8453C0.203649 35.3888 1.73336 39.781 1.43393 41.0741C1.22886 41.9598 0.493602 42.4374 -0.227254 42.8878C-0.924357 43.063 -1.70038 42.941 -2.39865 42.8073C-3.85048 42.5296 -5.05377 41.695 -5.8756 40.4769C-6.733 39.2059 -7.35729 37.7243 -7.85244 36.2793C-9.61045 31.1484 -14.0552 11.7646 -12.9498 6.61126C-12.7606 5.7292 -12.2282 5.28376 -11.4962 4.81678Z" fill="#4C9F37"/>
<path d="M6.12559 44.2648C5.53323 43.6664 4.71178 42.7216 4.48465 41.9195C3.26034 37.582 2.52248 33.1354 1.72725 28.7033C0.659859 22.754 -0.935523 16.771 -1.13579 10.7101C-1.18654 9.17129 -0.631549 6.88244 1.40927 7.01989C2.56129 7.09751 3.65724 7.63068 4.8212 7.67533C7.64803 7.98423 11.5077 6.62156 13.6289 8.99179C14.9408 10.4579 15.3934 13.6323 15.4214 15.596C15.4305 16.2318 15.141 17.0278 14.6733 17.5246C13.4957 18.7754 8.09204 17.9434 8.10749 19.8669C8.11216 20.4532 8.57409 23.2416 9.14569 23.7608C9.47756 24.0623 9.66861 24.183 10.1399 24.1848C12.1597 24.1923 14.9276 21.5604 16.7806 23.3475C17.6464 24.1826 18.0516 26.1502 18.0058 27.3692C17.9538 28.7555 17.8379 29.3154 17.0045 30.3115C15.6159 31.971 10.9138 31.3688 10.9428 33.3251C10.98 35.834 12.345 40.4531 12.3897 42.7813C12.0474 43.4134 11.9018 43.7015 11.4365 44.2648H6.12559Z" fill="#00AEEF"/>
<path d="M-11.4962 4.81678C-10.4845 4.72813 -9.28792 4.82911 -8.28996 5.0286C-6.96804 5.29272 -5.71855 5.92221 -4.96525 7.08214C-4.54862 7.7237 -4.35135 8.88532 -4.22272 9.64122C-3.77637 12.2645 -3.68746 14.9787 -3.33275 17.6218C-2.58918 23.0839 -1.54073 28.5003 -0.192212 33.8453C0.203649 35.3888 1.73336 39.781 1.43393 41.0741C1.22886 41.9598 0.493602 42.4374 -0.227254 42.8878C-0.924357 43.063 -1.70038 42.941 -2.39865 42.8073C-3.85048 42.5296 -5.05377 41.695 -5.8756 40.4769C-6.733 39.2059 -7.35729 37.7243 -7.85244 36.2793C-9.61045 31.1484 -14.0552 11.7646 -12.9498 6.61126C-12.7606 5.7292 -12.2282 5.28376 -11.4962 4.81678Z" fill="#4C9F37"/>
<path d="M159.686 0.083123C160.165 0.0247173 160.647 -0.00292808 161.128 0.00031668C162.091 0.00966158 163.148 0.243285 163.836 0.966607C165.483 2.69892 164.686 6.81548 164.781 9.09045C164.965 13.5491 165.689 17.8759 166.869 22.1829C167.186 23.3434 167.524 24.4894 167.942 25.6186C168.516 27.1701 170.617 31.5003 170.55 32.89C170.52 33.5213 170.215 34.1903 169.742 34.6112C168.908 35.3552 167.903 35.3329 166.862 35.281C165.994 35.1679 165.239 34.8688 164.56 34.3083C159.637 30.2477 156.595 17.5105 155.976 11.2033C155.748 8.89433 155.334 2.95007 156.919 1.08809C157.632 0.252505 158.669 0.165929 159.686 0.083123Z" fill="#4C9F37"/>
<path d="M103.207 11.3632C104.572 11.2874 106.451 11.1103 107.531 12.1038C108.018 12.5515 108.249 13.2763 108.289 13.9234C108.353 14.9612 108.087 16.0577 107.917 17.0776C107.538 19.3624 107.091 21.6811 107.237 24.0063C107.466 27.6494 108.21 31.2417 109.447 34.6762C110.049 36.367 111.727 38.8252 111.795 40.509C111.836 41.5547 111.233 42.2621 110.567 42.9902C109.775 43.2822 109.007 43.3744 108.175 43.4549C107.145 43.3394 106.398 42.9902 105.625 42.2932C101.299 38.4042 98.9184 29.426 98.6095 23.8354C98.4602 21.1436 98.568 14.5524 100.503 12.45C101.305 11.5782 102.081 11.4207 103.207 11.3632Z" fill="#4C9F37"/>
<path d="M42.3684 9.09296C43.3124 9.09335 44.5764 9.24715 45.4771 9.51231C46.4592 9.80148 47.3165 10.3164 47.8128 11.2414C48.1499 11.8694 48.2663 12.5702 48.2903 13.2754C48.332 14.4994 48.0908 15.7868 47.9514 17.0033C47.7353 18.8891 47.5941 20.7498 47.6562 22.6518C47.7464 25.422 48.2448 28.1301 49.0287 30.7848C49.4966 32.3696 51.1326 35.863 51.3252 37.0928C51.3677 37.3634 51.3324 37.6322 51.2459 37.8907C51.01 38.5966 50.4747 39.0479 49.8326 39.3764C49.0355 39.5279 48.0768 39.5659 47.309 39.2874C45.754 38.723 44.59 36.6147 43.9148 35.1918C40.9935 29.0343 39.9856 21.386 40.3971 14.6382C40.4775 13.3205 40.4959 11.8715 40.9551 10.6227C41.2476 9.82718 41.6078 9.45066 42.3684 9.09296Z" fill="#4C9F37"/>
<path d="M234.173 44.2648C233.58 43.6665 232.759 42.7216 232.532 41.9195C231.307 37.5821 230.57 33.1355 229.774 28.7034C228.707 22.754 227.112 16.7711 226.911 10.7101C226.861 9.17135 227.416 6.8825 229.456 7.01995C230.608 7.09757 231.704 7.63074 232.868 7.67539C235.695 7.98429 239.555 6.62162 241.676 8.99186C242.988 10.458 243.441 13.6324 243.469 15.5961C243.478 16.2318 243.188 17.0278 242.72 17.5247C241.543 18.7754 236.139 17.9435 236.155 19.867C236.159 20.4532 236.621 23.2417 237.193 23.7608C237.525 24.0623 237.716 24.183 238.187 24.1848C240.207 24.1924 242.975 21.5605 244.828 23.3476C245.694 24.1826 246.099 26.1503 246.053 27.3693C246.001 28.7555 245.885 29.3155 245.052 30.3116C243.663 31.9711 238.961 31.3689 238.99 33.3252C239.027 35.8341 240.392 40.4532 240.437 42.7813C240.095 43.4134 239.949 43.7015 239.484 44.2648H234.173Z" fill="#00AEEF"/>
<path d="M304.784 10.7263C305.043 10.7016 305.304 10.6798 305.564 10.6609C306.907 10.5596 308.336 10.545 309.408 11.4987C309.97 11.9981 310.306 12.6766 310.396 13.419C310.55 14.6992 310.095 16.1805 309.931 17.4637C309.731 19.0325 309.684 20.5341 309.769 22.1125C311.376 20.3977 312.93 18.496 314.227 16.537C315.181 15.0974 316.014 13.4153 317.156 12.1279C317.485 11.7572 317.818 11.5517 318.296 11.414C319.613 11.0338 322.2 11.0787 323.405 11.7529C324.098 12.1413 324.653 12.7483 324.857 13.5272C325.585 16.2973 322.586 20.7509 320.889 22.7124C319.616 24.1842 317.922 25.5949 316.957 27.2812L316.924 27.3401C318.178 28.7775 319.991 30.0151 321.42 31.3065C322.2 32.0118 322.994 32.724 323.693 33.512C324.499 34.4225 325.231 35.4346 326.094 36.2899C327.14 37.3265 328.417 38.1237 329.4 39.2273C329.494 39.5149 329.597 39.8115 329.654 40.1095C329.758 40.662 329.583 41.2888 329.246 41.7314C328.782 42.3414 328.156 42.6282 327.407 42.7178C326.426 42.8359 325.262 42.6594 324.375 42.2142C323.407 41.7288 322.6 40.8454 321.748 40.1745C318.354 37.5006 315.108 34.657 311.722 31.9796C312.018 33.3604 313.947 38.2897 313.692 39.2136C313.509 39.8835 312.819 40.1787 312.258 40.4773C309.795 40.4607 308.026 40.1186 306.127 38.4692C303.417 36.115 300.946 28.5461 300.171 25.029C299.848 23.5579 299.687 22.081 299.582 20.58C299.414 18.2001 299.26 13.9482 300.946 12.0594C301.95 10.9329 303.373 10.804 304.784 10.7263Z" fill="#E8422E"/>
<path d="M377.936 0.95867C378.582 0.867427 379.169 0.882876 379.752 1.21267C380.559 1.66928 381.099 2.60234 381.32 3.4792C382.084 6.51435 380.225 11.0562 378.648 13.6165C377.739 15.0927 376.594 16.4298 375.715 17.9125C375.566 18.163 375.354 18.5782 375.497 18.8643C375.802 19.473 379.281 21.9184 380.042 22.606C381.456 23.8796 382.51 25.353 383.806 26.714C384.85 27.8096 386.106 28.7581 387.071 29.9163C387.398 30.3101 387.683 30.768 387.799 31.2725C387.916 31.7904 387.844 32.3322 387.555 32.7824C387.077 33.5236 386.32 34.0411 385.456 34.2182C384.544 34.408 383.499 34.2976 382.638 33.9436C381.531 33.4881 380.589 32.6176 379.643 31.8972C378.138 30.7524 376.568 29.7018 375.123 28.4782C373.657 27.2347 372.295 25.7452 370.699 24.6785C370.803 26.721 371.354 29.0424 371.977 30.9918C372.003 31.1044 372.027 31.2172 372.045 31.3317C372.14 31.9514 372.038 32.5451 371.646 33.0469C370.956 33.9328 369.788 34.375 368.707 34.5052C367.384 34.6644 366.126 34.3768 365.071 33.5368C362.447 31.4489 360.967 20.2698 360.567 16.7177C360.252 13.9117 359.515 7.85456 361.344 5.61658C362.224 4.53907 364.754 3.33981 366.151 3.21157C366.696 3.16147 367.252 3.26881 367.679 3.62755C368.204 4.06832 368.453 4.75517 368.579 5.4097C368.848 6.80196 368.63 8.3527 368.655 9.77131C368.684 11.4277 368.845 13.0882 368.975 14.7394C370.139 12.6811 371.166 10.5467 372.045 8.35075C372.843 6.35575 373.266 3.8469 374.564 2.12121C375.321 1.11455 376.787 1.11585 377.936 0.95867Z" fill="#E8422E"/>
<path d="M207.636 4.47308C208.266 4.36756 208.972 4.37807 209.585 4.5603C210.604 4.8631 211.382 5.55268 211.88 6.48289C213.793 10.0545 211.767 15.4624 209.905 18.6381C209.244 19.765 207.894 21.4029 207.567 22.6106C207.484 22.9155 207.512 23.0676 207.666 23.342C208.321 24.5108 210.666 26.0806 211.683 27.2235C213.266 29.002 214.331 31.1168 215.684 33.0543C216.466 34.1749 217.467 35.1843 218.143 36.3715C218.501 36.9991 218.744 37.4858 218.537 38.2078C218.27 39.1423 217.5 39.66 216.703 40.1116C216.385 40.1287 216.066 40.1338 215.748 40.1266C214.751 40.1116 213.597 39.9931 212.741 39.4387C211.681 38.7523 210.889 37.5601 210.036 36.6375C207.495 33.8875 205.003 31.0371 202.4 28.3516C202.401 29.5555 202.514 30.775 202.575 31.9777C202.626 32.7061 202.739 33.4298 202.825 34.1548C202.916 34.9288 202.903 35.7193 202.385 36.3517C201.892 36.9534 201.104 37.2537 200.348 37.3216C199.02 37.4313 197.705 37.0035 196.695 36.1341C196.162 35.6751 195.765 35.1128 195.53 34.4492C194.847 32.5196 194.599 30.3053 194.295 28.2836C193.861 25.4524 193.467 22.6153 193.113 19.773C192.754 16.9673 192.261 14.1796 192.083 11.3535C191.965 9.47455 192.079 8.51255 193.356 7.06642C194.294 6.74545 195.303 6.32104 196.281 6.16399C197.012 6.04666 197.739 6.06977 198.348 6.53494C198.971 7.00984 199.362 7.74082 199.595 8.47478C200.01 9.78333 200.002 11.286 200.148 12.651C200.341 14.5078 200.571 16.3606 200.838 18.2081C202.117 15.7358 203.081 13.1126 203.707 10.4001C204.028 9.03521 204.124 7.47928 204.681 6.19449C204.978 5.51114 205.453 5.09504 206.01 4.62935C206.546 4.55382 207.097 4.5237 207.636 4.47308Z" fill="#E8422E"/>
<path d="M249.206 6.31355C250.502 6.18622 251.815 6.08707 252.982 6.78949C253.773 7.26583 254.323 8.04911 254.628 8.91014C255.101 10.243 255.045 11.7572 255.206 13.1543C255.449 15.2513 255.754 17.3979 256.251 19.4496C256.933 17.5265 257.617 15.5941 258.196 13.6368C258.634 12.1548 258.946 10.5076 259.554 9.09846C259.779 8.57761 260.147 7.87843 260.682 7.616C261.435 7.24674 263.231 7.66843 264 7.90244C264.919 8.18201 265.644 8.92441 266.066 9.76584C268.455 14.5337 263.096 20.9226 261.648 25.2139C262.605 26.8823 264.307 28.3229 265.545 29.8134C266.626 31.1147 267.576 32.5511 268.689 33.8164C269.406 34.6311 270.349 35.3955 270.92 36.3112C271.155 36.6867 271.232 37.1175 271.311 37.5467C271.108 38.293 270.883 38.9042 270.315 39.452C269.814 39.936 269.19 40.123 268.501 40.0973C265.418 39.9826 260.512 33.5224 258.392 31.2502C258.586 33.429 259.928 37.6378 259.484 39.4943C259.321 40.1733 258.949 40.7895 258.338 41.1512C257.71 41.5211 256.79 41.6704 256.082 41.4809C255.162 41.2356 254.336 40.4775 253.884 39.6554C252.669 37.4477 251.26 28.9408 250.529 25.9158C249.462 21.5014 248.083 17.1331 247.157 12.6916C246.92 11.5516 246.306 9.54884 246.627 8.46703C246.777 7.96345 246.921 7.48867 247.281 7.09074C247.842 6.47203 248.4 6.36429 249.206 6.31355Z" fill="#E8422E"/>
<path d="M398.267 0.67578C399.572 0.669161 400.875 1.0266 402.166 1.19702C404.62 1.52123 407.228 1.51228 409.58 2.36332C410.965 2.8647 412.16 3.77998 412.782 5.14368C413.353 6.39798 413.638 8.89631 413.11 10.2019C412.773 11.0375 412.165 11.3243 411.381 11.6558C409.934 11.3285 406.909 10.7528 405.495 11.229C405.167 11.3397 404.925 11.5307 404.772 11.8471C404.193 13.0534 405.115 15.2658 405.533 16.4392C407.212 16.6454 408.7 16.265 410.356 16.1432C411.442 16.0631 412.378 16.2535 413.202 16.9948C414.321 18.0012 414.917 19.5605 414.992 21.0416C415.037 21.9266 414.906 22.9339 414.272 23.6057C413.95 23.9468 413.554 24.1468 413.097 24.2382C411.895 24.4785 408.955 24.2305 407.524 24.2558C406.602 26.2376 409.995 33.1057 409.116 35.3475C408.879 35.9551 408.393 36.3897 407.804 36.6469C406.783 37.0833 405.631 37.0959 404.602 36.6821C403.01 36.0409 402.114 34.6546 401.461 33.1465C398.998 27.4508 393.975 8.33458 396.277 2.67624C396.711 1.61001 397.213 1.11888 398.267 0.67578Z" fill="#00AEEF"/>
<path d="M353.496 9.26869C354.054 9.24403 354.581 9.39653 355.033 9.731C355.54 10.1058 355.8 10.6476 355.87 11.2652C355.944 11.9138 355.884 12.6052 355.853 13.2561C355.526 20.1656 348.549 17.975 347.007 20.3092C346.59 20.9399 346.432 22.5647 346.561 23.2703C346.634 23.661 346.796 23.872 347.122 24.0932C348.789 24.5976 351.369 22.4784 353.054 22.0804C353.703 21.9271 354.507 21.8776 355.093 22.2558C355.501 22.5203 355.693 22.9553 355.787 23.4178C356.912 28.9519 349.365 29.3084 348.115 31.2201C347.692 32.6222 349.142 36.5613 349.727 37.9726C349.788 38.1856 349.853 38.4034 349.884 38.6234C349.985 39.3379 349.53 40.0578 349.104 40.5888C348.299 41.5937 347.131 42.1739 345.858 42.3102C345.017 42.3997 344.26 42.2219 343.609 41.6703C340.823 39.3093 338.879 28.9969 338.526 25.2181C338.168 21.3849 338.047 15.2281 340.69 12.1456C341.117 11.6479 341.624 11.5427 342.234 11.3861C343.672 11.0173 345.209 11.051 346.672 10.7661C348.917 10.3291 351.225 9.45039 353.496 9.26869Z" fill="#00AEEF"/>
<path d="M280.821 11.3208C282.301 11.1501 283.874 11.7119 285.36 11.833C287.716 12.0251 290.459 11.6751 292.735 12.3483C293.749 12.6485 294.379 13.6251 294.871 14.4873C294.864 15.581 294.919 16.7884 294.603 17.8429C294.241 19.0545 293.481 19.7721 292.402 20.3679C290.648 20.413 288.542 20.0235 286.833 20.4497C286.381 20.5625 286.002 20.7494 285.76 21.1686C285.205 22.1279 285.595 23.4976 285.845 24.5024C287.283 24.6388 288.675 24.3047 290.091 24.1033C291.312 23.9296 292.659 24.0802 293.661 24.8609C294.131 25.2274 294.388 25.6957 294.443 26.2897C294.524 27.1922 294.178 28.3255 293.574 29.0069C292.772 29.9135 291.615 29.93 290.499 29.9994C289.384 30.2387 288.11 30.1971 287.052 30.6159C285.847 31.8415 288.864 36.2723 288.578 37.9479C288.506 38.3674 288.264 38.7018 287.914 38.9343C287.108 39.4698 285.495 39.6367 284.552 39.4405C283.325 39.1849 282.349 38.2824 281.693 37.2503C278.573 32.3384 277.45 20.1784 278.747 14.5786C279.075 13.1607 279.56 12.1086 280.821 11.3208Z" fill="#00AEEF"/>
<path d="M216.551 4.81684C217.563 4.72819 218.759 4.82917 219.757 5.02866C221.079 5.29278 222.328 5.92227 223.082 7.08221C223.498 7.72376 223.696 8.88538 223.824 9.64128C224.271 12.2646 224.36 14.9788 224.714 17.6218C225.458 23.0839 226.506 28.5003 227.855 33.8454C228.251 35.3888 229.78 39.7811 229.481 41.0742C229.276 41.9599 228.541 42.4375 227.82 42.8879C227.123 43.0631 226.347 42.9411 225.648 42.8074C224.197 42.5296 222.993 41.6951 222.171 40.477C221.314 39.206 220.69 37.7244 220.195 36.2793C218.437 31.1484 213.992 11.7646 215.097 6.61132C215.286 5.72926 215.819 5.28383 216.551 4.81684Z" fill="#4C9F37"/>
<path d="M387.734 0.083123C388.213 0.0247173 388.694 -0.00292808 389.176 0.00031668C390.139 0.00966158 391.195 0.243285 391.883 0.966607C393.53 2.69892 392.733 6.81548 392.828 9.09045C393.012 13.5491 393.736 17.8759 394.916 22.1829C395.233 23.3434 395.572 24.4894 395.99 25.6186C396.563 27.1701 398.665 31.5003 398.597 32.89C398.567 33.5213 398.262 34.1903 397.79 34.6112C396.955 35.3552 395.951 35.3329 394.91 35.281C394.041 35.1679 393.286 34.8688 392.607 34.3083C387.684 30.2477 384.642 17.5105 384.023 11.2033C383.796 8.89433 383.382 2.95007 384.967 1.08809C385.679 0.252505 386.716 0.165929 387.734 0.083123Z" fill="#4C9F37"/>
<path d="M331.254 11.3632C332.619 11.2874 334.499 11.1104 335.578 12.1038C336.065 12.5516 336.296 13.2763 336.336 13.9235C336.4 14.9613 336.134 16.0578 335.964 17.0776C335.585 19.3625 335.138 21.6812 335.284 24.0064C335.514 27.6495 336.257 31.2418 337.494 34.6763C338.096 36.3671 339.775 38.8253 339.842 40.5091C339.884 41.5548 339.28 42.2622 338.614 42.9903C337.822 43.2823 337.054 43.3745 336.222 43.4549C335.192 43.3394 334.445 42.9903 333.672 42.2933C329.346 38.4043 326.966 29.426 326.657 23.8354C326.507 21.1437 326.615 14.5524 328.55 12.4501C329.352 11.5783 330.128 11.4207 331.254 11.3632Z" fill="#4C9F37"/>
<path d="M270.416 9.09299C271.359 9.09338 272.623 9.24718 273.524 9.51234C274.506 9.80151 275.364 10.3164 275.86 11.2414C276.197 11.8695 276.313 12.5702 276.337 13.2755C276.379 14.4994 276.138 15.7868 275.999 17.0033C275.782 18.8892 275.641 20.7498 275.703 22.6518C275.793 25.422 276.292 28.1301 277.076 30.7848C277.544 32.3696 279.18 35.863 279.372 37.0928C279.415 37.3634 279.379 37.6322 279.293 37.8907C279.057 38.5967 278.522 39.0479 277.88 39.3764C277.083 39.5279 276.124 39.5659 275.356 39.2874C273.801 38.7231 272.637 36.6148 271.962 35.1919C269.041 29.0344 268.033 21.3861 268.444 14.6383C268.525 13.3205 268.543 11.8715 269.002 10.6227C269.295 9.82721 269.655 9.45069 270.416 9.09299Z" fill="#4C9F37"/>
</g>
<use xlink:href="#Repeat%20group%201_inner" transform="translate(451)"/>
<use xlink:href="#Repeat%20group%201_inner" transform="translate(902)"/>
</svg>
