<svg width="22" height="18" viewBox="0 0 22 18" fill="none" xmlns="http://www.w3.org/2000/svg">
<path d="M10.4661 2.95025C10.5984 2.94301 10.7309 2.93695 10.8633 2.93207C11.5989 2.91022 11.9231 3.1976 12.4291 3.67313C12.9196 3.72919 13.3596 3.84915 13.7245 4.19565C14.0005 4.45787 14.323 5.07486 14.4025 5.42851C14.4982 5.8544 14.4717 6.76536 14.3992 7.19494C14.3774 7.32432 14.1574 7.58948 14.1497 7.81595C14.1368 8.19319 14.4935 8.28873 14.3733 8.63609C14.2316 9.04548 14.0198 9.2536 13.8117 9.59161C13.6736 9.81608 13.6053 10.0897 13.4167 10.3455C13.1376 10.724 12.6973 11.1637 12.5144 11.5852C12.4502 11.7333 12.4722 12.2229 12.4654 12.4093C12.4338 13.0085 13.0511 13.5138 13.5762 13.6933C14.3689 13.9642 15.2776 14.3093 15.9126 14.8835C16.358 15.3379 16.5792 15.8153 16.7574 16.4024C16.9188 16.934 16.9221 17.1023 16.9281 17.6462C16.4642 17.6787 15.6466 17.65 15.1534 17.6498L11.5693 17.649L7.44167 17.6486C6.70869 17.6487 5.81184 17.6268 5.09104 17.6634C5.08195 17.1651 5.13886 17.0163 5.21997 16.5424C5.46072 15.1361 6.52521 14.4035 7.77135 13.9164C8.40488 13.6688 8.96294 13.5909 9.37634 12.9501C9.62206 12.5693 9.5402 12.0127 9.49687 11.577C9.43104 11.2587 8.89797 10.8126 8.71232 10.5045C8.55972 10.353 8.28171 9.68949 8.16619 9.57747C7.53874 8.96906 7.7145 8.59289 7.81045 7.81797C7.7631 7.59068 7.6083 7.36871 7.55294 7.1408C7.24326 5.86583 7.49792 4.5671 8.58417 3.7476C9.23766 3.2546 9.6574 3.12204 10.4661 2.95025Z" fill="#0B9444"/>
<path d="M3.59374 0.742856C4.09372 0.408258 4.31059 -0.00815276 4.98661 0.00667147C6.24317 0.0342359 7.34281 0.812121 7.69238 2.03523C7.77701 2.33128 7.84144 2.25555 7.71214 2.60708C7.4611 2.79472 7.29659 2.95227 7.08847 3.17145C6.75461 3.52304 6.11315 4.71788 6.09089 5.18366C6.063 5.76726 6.0632 6.90986 6.1347 7.51057C6.14808 7.62315 6.35046 8.05546 6.39401 8.34161C6.47797 8.38335 6.56318 8.42355 6.64242 8.47361C6.53811 8.51086 5.94233 8.65893 5.92368 8.67577C5.86979 8.86888 5.89682 9.38502 5.99526 9.57172C6.19951 9.95906 6.59468 10.0658 6.86373 10.3724C7.28012 10.8468 7.38058 11.4041 7.90265 11.785L7.97445 11.9445C7.91285 12.3001 7.72953 12.2952 7.4101 12.4076C6.99512 12.5536 6.33306 13.1211 5.93661 13.1838C5.45527 13.26 4.74541 13.2148 4.24804 13.2136L1.55792 13.2158C1.06603 13.2161 0.486134 13.2028 0 13.2215V12.373C0.285751 12.1242 0.179006 12.0676 0.347562 11.8106C0.605499 11.4173 1.15122 11.0261 1.56404 10.8062C2.26467 10.4332 3.53556 10.1704 3.61105 9.21443C3.6163 9.04238 3.62197 8.81199 3.64345 8.64396C2.82376 8.59269 1.64453 8.57198 1.02543 7.93931C0.97977 7.89265 0.912019 7.78774 0.927891 7.72112C1.01732 7.34574 1.13803 7.08251 1.15679 6.68754C1.1979 5.82194 1.16599 4.95646 1.19841 4.09055C1.20612 3.90581 1.19681 3.39689 1.23333 3.23062C1.36067 2.65091 1.60326 1.708 2.06775 1.31075C2.31623 1.09827 2.77099 0.873696 3.08383 0.779358C3.20854 0.741739 3.45819 0.744166 3.59374 0.742856Z" fill="#0B9444"/>
<path d="M22.0001 13.2189L17.9598 13.2146C17.432 13.2147 16.9129 13.2252 16.3625 13.2161C15.7875 13.2066 15.1861 12.6602 14.657 12.4429C14.4696 12.3659 14.2358 12.2947 14.0672 12.2057C13.9453 12.0155 14.4265 11.5177 14.5428 11.3524C14.6845 11.1643 14.8056 10.9612 14.9355 10.7649C15.3386 10.1784 15.7591 9.23028 15.7064 8.50697C15.6569 7.82802 15.65 7.73338 15.8659 7.10232C15.9297 6.91571 15.9241 5.82774 15.8937 5.61076C15.736 4.48786 15.0981 3.23998 14.0628 2.69533C13.9099 2.61371 14.049 2.31205 14.0814 2.19023C14.2241 1.65306 14.4927 1.13797 14.9053 0.759138C15.6812 0.114305 17.059 -0.356242 17.9353 0.357766C18.0684 0.466198 18.1849 0.619317 18.3431 0.688089C18.6115 0.804706 18.9034 0.829693 19.1138 1.05921C19.5057 1.43729 19.7536 2.1923 19.8272 2.71808C19.851 2.88813 19.8259 3.45062 19.8276 3.66241C19.8233 3.73419 19.8172 3.84019 19.8009 3.90725C19.7637 4.06009 19.5136 4.52041 19.6413 4.65037C19.738 4.74883 19.7944 4.74499 19.8328 4.92266C19.8501 5.42192 19.8054 5.57156 19.4638 5.9731C19.4259 6.01768 19.2996 6.09442 19.2809 6.12615C19.1364 6.3702 19.0989 6.69323 18.9843 6.94682C18.9056 7.1209 18.7245 7.35031 18.6048 7.50685C18.3666 7.78716 18.3765 8.14214 18.3681 8.48834C18.3585 8.81321 18.4216 9.08327 18.6619 9.31938C19.1102 9.75985 19.734 9.89821 20.2888 10.1591C20.6785 10.3423 20.9579 10.5114 21.2618 10.8261C21.6299 11.2073 21.7517 11.6909 21.9221 12.1779C21.9318 12.206 21.9754 12.2281 22.0001 12.2402V13.2189Z" fill="#0B9444"/>
</svg>
